<?xml version="1.0" standalone="no"?>
<!DOCTYPE svg PUBLIC "-//W3C//DTD SVG 1.1//EN" "http://www.w3.org/Graphics/SVG/1.1/DTD/svg11.dtd" >
<svg xmlns="http://www.w3.org/2000/svg">
<metadata></metadata>
<defs>
<font id="gauntlet_thinregular" horiz-adv-x="1005" >
<font-face units-per-em="2048" ascent="1638" descent="-410" />
<missing-glyph horiz-adv-x="487" />
<glyph horiz-adv-x="2048" />
<glyph horiz-adv-x="2048" />
<glyph unicode="&#xd;" horiz-adv-x="2048" />
<glyph unicode=" "  horiz-adv-x="487" />
<glyph unicode="&#x09;" horiz-adv-x="487" />
<glyph unicode="&#xa0;" horiz-adv-x="487" />
<glyph unicode="!" horiz-adv-x="837" d="M313 51q-3 -34 17.5 -56t54.5 -22t59.5 22.5t28.5 55.5q3 34 -18.5 57t-55.5 23t-58.5 -23t-27.5 -57zM381 334q0 -6 5 -9t11 -1q30 6 50.5 29t23.5 53l82 829q0 22 6 37q10 25 3.5 50t-30.5 28q-63 8 -65 -23z" />
<glyph unicode="&#x22;" horiz-adv-x="618" d="M135 1366l19 -412q0 -17 32 -8l33 8l21 412q1 16 -25.5 16t-52.5 -8zM379 1366l20 -412q1 -10 17.5 -10t32.5 5l16 5l18 412q1 16 -25 16t-52 -8z" />
<glyph unicode="#" horiz-adv-x="915" d="M43 464q1 -22 37 -39q26 -13 55 -13q9 0 14 -6.5t3 -14.5l-48 -158q-16 -49 7 -90q18 -31 37 -17q10 8 16 28l78 258h250q9 0 14 -7t2 -16l-47 -156q-9 -28 19 -66q23 -33 36 -21q2 3 4 8l78 258h96q40 0 38 21q-2 22 -39 40q-27 12 -56 12q-8 0 -12.5 7t-1.5 14l114 389 h97q39 0 38 21q-1 22 -37 40q-27 13 -57 13q-8 0 -12.5 6.5t-1.5 13.5l47 154q7 30 -20 69q-22 32 -35 19q-2 -2 -4 -8l-76 -254h-248q-9 0 -14.5 7.5t-3.5 16.5l45 150q9 30 -21 70q-23 33 -35 20q-3 -3 -4 -8l-76 -256h-94q-39 0 -38 -21q1 -22 37 -40q26 -13 55 -13 q9 0 13.5 -6.5t2.5 -14.5l-117 -389h-96q-40 0 -39 -21zM268 510l117 385h246q9 0 14.5 -7t3.5 -16l-112 -387h-250q-9 0 -15 8t-4 17z" />
<glyph unicode="$" horiz-adv-x="1136" d="M279 623q-3 44 0 58.5t14 16.5q4 2 8 0t6 -4t4.5 -5.5t3.5 -4.5q52 -107 160 -149q34 -13 86 -19v10q0 56 33 96q25 29 38 11q7 -10 7 -33v-80q77 19 120.5 69t43.5 120q0 59 -37.5 93.5t-132.5 63.5l-82 23q-98 33 -149 67t-78 88q-25 45 -25 101q0 103 71.5 171.5 t190.5 80.5v78q0 41 20 38q22 -3 41 -43q17 -34 17 -71v-2q44 -3 109 -27q24 -8 24 -10q16 -4 19 -4q5 0 7.5 1t7 7t11.5 18q10 16 21 13q17 -2 14 -52q0 -32 -31 -53q-47 -23 -98 4q-30 19 -84 25v-80q0 -42 -20 -39q-21 3 -41 43q-17 35 -17 72v4q-74 -11 -117 -54.5 t-43 -107.5q0 -62 38 -100t128 -66l90 -24q135 -43 192.5 -100.5t57.5 -149.5q0 -107 -71.5 -181.5t-196.5 -97.5q-1 -58 -35 -96q-26 -27 -38 -5q-5 10 -5 30v69q-84 6 -149 39q-129 63 -133 148z" />
<glyph unicode="%" horiz-adv-x="1630" d="M170 981q0 172 76 280.5t196 108.5q354 27 680 6q11 2 22.5 -22.5t4.5 -38.5l-623 -1321q-8 -18 -24 4q-18 28 -10 51l600 1270q-165 9 -492 -12q54 -52 84.5 -137t30.5 -189q0 -169 -75.5 -273t-197.5 -104q-121 0 -196.5 104.5t-75.5 272.5zM260 987q0 -307 182 -307 q90 0 136.5 77.5t46.5 229.5q0 148 -47.5 228.5t-135.5 80.5t-135 -80.5t-47 -228.5zM915 373q0 172 76.5 282.5t196.5 110.5q118 0 195 -110.5t77 -280.5q0 -168 -75.5 -272.5t-196.5 -104.5t-197 104.5t-76 270.5zM1006 381q0 -307 182 -307q180 0 180 307 q0 148 -47 227.5t-133 79.5q-88 0 -135 -79.5t-47 -227.5z" />
<glyph unicode="&#x26;" horiz-adv-x="974" d="M180 496q0 177 178 278q13 10 4 27l-12 18q-59 86 -59 170q0 69 58 120.5t157 51.5q70 0 143 -33q30 -13 47 -28t17 -39v-27q0 -12 -11.5 -15t-19.5 7q-57 76 -172 76q-66 0 -113 -36.5t-47 -78.5q0 -43 24.5 -92.5t41.5 -69.5l250 -354q8 -13 14 -4q69 99 106 186 q0 4 4 5q3 1 3 -1q3 -24 -2 -43q-23 -104 -82 -184q-6 -10 2 -22l94 -119q23 -27 33 -35q5 -5 7.5 -10.5t1 -9t-8.5 -3.5q-29 0 -59 14.5t-50 37.5l-18 22l-43 51q-10 13 -23 0q-95 -98 -231 -98q-65 0 -113.5 25t-73 64t-36 76.5t-11.5 72.5zM250 508q0 -87 55.5 -141 t122.5 -54q106 0 195 84q13 13 2 23l-209 301q-9 11 -27 4q-53 -26 -96 -81.5t-43 -135.5z" />
<glyph unicode="'" horiz-adv-x="374" d="M135 1366l19 -412q0 -17 32 -8l33 8l21 412q0 16 -26 16t-52 -8z" />
<glyph unicode="(" horiz-adv-x="538" d="M131 690q0 -38 1 -106.5t1 -98.5q3 -180 12 -274.5t31 -167.5q20 -71 64.5 -128t105.5 -91q23 -12 55 11q27 19 14 29q-2 2 -5 3q-33 12 -52 30t-43 58q-51 83 -67.5 225.5t-16.5 495.5q0 403 27 577q28 192 156 250q20 9 -4 28q-28 22 -57 16l-9 -3 q-59 -34 -103.5 -91.5t-64.5 -127.5q-29 -108 -35 -219q-10 -202 -10 -416z" />
<glyph unicode=")" horiz-adv-x="534" d="M117 1505l6 -4q34 -14 54 -32t42 -54q51 -85 67.5 -227.5t16.5 -493.5q0 -405 -27 -579q-14 -94 -54 -158t-101 -90q-21 -9 0 -30q23 -24 50 -20q5 1 9 3q63 34 109.5 92t68.5 131q25 88 35 219q8 161 8 418v205q-5 181 -14 274.5t-29 163.5q-20 71 -65 129t-105 92 q-22 13 -55 -10q-26 -17 -16 -29z" />
<glyph unicode="*" horiz-adv-x="1157" d="M291 1184q-9 -23 24 -39q1 -1 4.5 -2t4.5 -2q1 0 3.5 -1t7 -2.5l7.5 -2.5l164 -54q9 -1 12 -10t-2 -16l-102 -142q-2 -2 -4.5 -5.5t-3.5 -4.5q-31 -40 -7 -59q23 -15 56 22l8 13l102 139q5 8 14 8t15 -8l100 -139q10 -15 11 -17q10 -14 24 -20t27 2q26 21 -2 57 q-3 4 -5 6t-2.5 2t-1.5 1t-2 3l-102 142q-6 8 -3 16t11 10l166 54q12 4 14 4q44 18 37 45q-4 14 -22 16.5t-33 -4.5l-14 -4l-166 -55q-9 -2 -16 3.5t-7 14.5v174v12q0 52 -28 52q-14 0 -22.5 -12.5t-8.5 -28.5v-23v-174q0 -9 -7.5 -14.5t-15.5 -3.5l-166 55q-13 5 -22 8 q-13 5 -28 1t-19 -17z" />
<glyph unicode="+" horiz-adv-x="712" d="M78 550q0 20 6 40l6 20h227v226q0 12 20 12t40 -6l20 -6v-226h226q12 0 12 -20t-6 -40l-6 -20h-226v-227q0 -12 -20 -12t-40 6l-20 6v227h-227q-12 0 -12 20z" />
<glyph unicode="," horiz-adv-x="520" d="M190 53q0 -60 62 -73q15 -2 10 -27q-15 -40 -28.5 -64t-43.5 -63q-13 -16 15 -18q37 -2 65 17q6 4 9 9q73 103 73 197q0 45 -23.5 74.5t-60.5 29.5q-33 0 -55.5 -23.5t-22.5 -58.5z" />
<glyph unicode="-" horiz-adv-x="612" d="M99.5 541.5q2.5 -11.5 11.5 -11.5h424q2 5 4 13.5t6 26t1.5 29t-11.5 11.5h-424q-2 -5 -4 -13.5t-6 -26t-1.5 -29z" />
<glyph unicode="." horiz-adv-x="520" d="M180 55q0 33 23.5 56.5t56.5 23.5t56.5 -23.5t23.5 -56.5q0 -34 -23 -58t-57 -24t-57 24t-23 58z" />
<glyph unicode="/" horiz-adv-x="831" d="M119 -287q-5 -24 19 -52q20 -22 26 -5l563 1970q6 24 -18 55q-19 24 -26 8q-1 -1 -1 -3z" />
<glyph unicode="0" horiz-adv-x="1177" d="M137 684q0 -104 21 -228.5t53 -201.5q53 -124 157.5 -202.5t217.5 -78.5q104 0 205.5 69t152.5 173q47 97 73.5 220.5t26.5 248.5q0 137 -31.5 273.5t-86.5 230.5q-53 91 -145.5 148t-188.5 57q-97 0 -193.5 -59t-150.5 -154q-50 -91 -80.5 -227.5t-30.5 -268.5zM242 678 q0 94 21 220t48 198q37 96 118 158.5t169 62.5q86 0 160 -60t112 -163q66 -177 66 -402q0 -100 -17 -210t-47 -193q-35 -110 -111.5 -176t-168.5 -66q-94 0 -173 67.5t-116 178.5q-26 73 -43.5 183.5t-17.5 201.5z" />
<glyph unicode="1" horiz-adv-x="649" d="M172 1208q0 -22 6 -42l6 -19q110 48 162 88q6 5 12.5 4.5t6.5 -6.5v-1141v-20q-2 -30 12 -53.5t39 -24.5h14q20 1 30 18.5t7 40.5q-2 10 -2 39v1288q0 8 -14.5 8t-28.5 -4l-14 -4q-80 -77 -224 -145q-12 -5 -12 -27z" />
<glyph unicode="2" horiz-adv-x="1067" d="M141 31q0 -12 9.5 -21.5t21.5 -9.5h815q22 0 19 43q-1 21 -26 27.5t-48 -0.5q-10 -2 -37 -2h-584q-5 0 -8 3.5t0 6.5q91 53 211 151q132 111 236 224q97 109 151.5 244.5t54.5 271.5q0 189 -114.5 306.5t-298.5 117.5q-149 0 -273 -82q-2 -1 -6 -4t-6 -4t-10.5 -6.5 t-11 -7.5t-10 -7t-10 -7.5t-8.5 -7.5t-8.5 -8.5t-6 -9t-5 -10t-3 -10.5t-1.5 -12v-76q0 -11 8 -15t18.5 -0.5t16.5 13.5q16 25 60 69q54 51 124 80t138 29q129 0 213 -101t84 -255q0 -123 -52 -246.5t-149 -229.5q-86 -100 -217 -215q-101 -92 -147.5 -127t-118.5 -73 q-21 -9 -21 -39z" />
<glyph unicode="3" horiz-adv-x="1144" d="M154 156q-4 -52 18 -68q133 -115 367 -115q226 0 360.5 119t134.5 318q0 177 -119 282t-321 105q-48 0 -115 -15q-3 -1 -4.5 1.5t-1.5 6t2 5.5l477 495q19 19 19 47q0 12 -8 20.5t-19 8.5h-741q-28 0 -21 -61q5 -37 74 -13q24 6 72 6h471q7 0 10 -7t-2 -11l-449 -483 q-26 -27 -31 -76q-4 -41 17 -39q4 0 8 2q87 37 207 37q174 0 271.5 -85t97.5 -237q0 -164 -107 -258t-293 -94q-113 0 -187.5 29.5t-121.5 93.5q-10 13 -25 16t-27 -5t-13 -25z" />
<glyph unicode="4" horiz-adv-x="1130" d="M109 412h583q6 0 6 -6v-314v-20q-2 -30 13 -53.5t41 -24.5h14q21 1 30.5 19t6.5 40q0 6 -1 19t-1 20v314q0 6 8 6h160q56 0 94 31q27 22 9 33q-9 5 -28 5h-235q-8 0 -8 6v359q0 5 -2.5 7t-7.5 1t-10.5 -3.5t-12.5 -6.5q-70 -47 -70 -156v-201q0 -6 -6 -6h-430 q-9 0 -13 6.5t1 14.5l10 20q8 15 43.5 82.5t54.5 100.5q66 115 147.5 245.5t123.5 188.5l129 182l30 47q11 14 -4 18q-17 7 -33 9t-32 -4t-28 -11t-28 -21t-25 -24.5t-24.5 -31t-21.5 -31t-22.5 -34.5t-20.5 -32q-103 -150 -228.5 -363.5t-211.5 -383.5q-16 -47 0 -47z" />
<glyph unicode="5" horiz-adv-x="1150" d="M158 221q0 -93 59 -141q131 -107 330 -107q222 0 356.5 117.5t134.5 312.5q0 193 -126 308.5t-337 115.5q-155 0 -268 -55q-5 -4 -9.5 1.5t-4.5 12.5l123 488q0 9 7 16.5t17 7.5h396q35 0 47 -2q26 -5 53.5 -1t28.5 26q4 45 -21 45h-536q-41 0 -70 -28.5t-29 -69.5 l-123 -555q0 -30 28.5 -41.5t53.5 4.5q125 76 283 76q177 0 278 -91.5t101 -252.5q0 -166 -107 -263.5t-288 -97.5q-119 0 -209.5 52t-137.5 147q-6 12 -18 8t-12 -16v-17z" />
<glyph unicode="6" horiz-adv-x="1177" d="M133 645q0 -312 132 -492t360 -180q194 0 323 131.5t129 329.5q0 181 -120 297.5t-306 116.5q-121 0 -223 -49t-170 -140q-3 -2 -5.5 -3.5t-5.5 -3t-5 -1t-2 3.5q9 301 132.5 481.5t319.5 180.5q110 0 185 -57q38 -29 84 -17.5t47 57.5q0 72 -6 66q-2 -1 -5 -12 q-9 -33 -36 -33q-21 0 -76 29q-79 43 -193 43q-164 0 -291.5 -94t-197.5 -264t-70 -390zM246 516q-3 31 14 51q60 90 167.5 147.5t213.5 57.5q137 0 232.5 -102.5t95.5 -249.5q0 -157 -96.5 -265t-237.5 -108q-164 0 -270.5 128.5t-118.5 340.5z" />
<glyph unicode="7" horiz-adv-x="1177" d="M117 1321q1 -23 25.5 -30t47.5 1q18 6 76 6h561q9 0 13.5 -7t1.5 -15l-8 -16q-102 -268 -103 -269q-118 -320 -121 -329q-43 -127 -96 -320q-48 -168 -63 -240q-9 -41 11.5 -75t59.5 -35q75 -7 68 4q-1 1 -6 4q-41 21 -41 49q0 12 6 33q65 252 147 502q40 125 123 356 q83 226 137 346q11 22 11 51q0 12 -8.5 20.5t-20.5 8.5h-801q-24 0 -20 -45z" />
<glyph unicode="8" horiz-adv-x="1177" d="M113 367q0 -121 68.5 -212.5t176 -136.5t234.5 -45q107 0 198 32.5t150.5 87t93 124.5t33.5 145q0 133 -76.5 214t-216.5 129q98 40 164 136t66 203q0 111 -58 192t-150.5 119t-207.5 38q-97 0 -177.5 -30.5t-131.5 -81t-79 -114t-28 -131.5q0 -218 223 -315 q-122 -48 -202 -147t-80 -207zM219 373q0 102 73 191.5t177 129.5l156 -41q76 -19 132.5 -43t103.5 -59.5t71 -86.5t24 -116q0 -115 -104.5 -208t-257.5 -93q-95 0 -181 42t-140 118t-54 166zM279 1049q0 105 84 186.5t217 81.5q130 0 224.5 -82t94.5 -203q0 -98 -60 -182 t-139 -123l-141 37q-122 30 -201 103.5t-79 181.5z" />
<glyph unicode="9" horiz-adv-x="1177" d="M123 944q0 191 126.5 320t313.5 129q226 0 361 -179.5t135 -478.5q0 -219 -72 -393t-201 -271.5t-292 -97.5q-141 0 -248 72q-68 45 -68 141v13q0 13 13.5 15.5t19.5 -9.5q14 -25 41 -55q45 -46 111 -74.5t133 -28.5q141 0 252 101.5t161 273.5q34 114 41 262q0 7 -7 8 t-11 -4q-151 -160 -365 -160q-195 0 -319.5 116.5t-124.5 299.5zM231 952q0 -154 93.5 -251t242.5 -97q208 0 361 176q22 22 18 54q-15 230 -115.5 356.5t-267.5 126.5q-145 0 -238.5 -102.5t-93.5 -262.5z" />
<glyph unicode=":" horiz-adv-x="561" d="M201 55q0 33 23.5 56.5t56.5 23.5t56 -23.5t23 -56.5q0 -34 -23 -58t-56 -24q-34 0 -57 24t-23 58zM201 758q0 33 23.5 56.5t56.5 23.5q32 0 55.5 -24t23.5 -56q0 -34 -23 -57t-56 -23q-34 0 -57 23t-23 57z" />
<glyph unicode=";" horiz-adv-x="561" d="M219 756q0 34 24 58t58 24q32 0 56 -24t24 -58q0 -32 -24 -56t-56 -24q-34 0 -58 24t-24 56zM227 -181q1 3 4 7q30 39 43.5 63t28.5 64q5 25 -10 27q-62 13 -62 73q0 35 22.5 58.5t55.5 23.5q37 0 60.5 -29.5t23.5 -74.5q0 -93 -74 -197q-15 -22 -60 -26q-34 -3 -32 11z " />
<glyph unicode="&#x3c;" horiz-adv-x="804" d="M68 526q-25 72 0 84l669 381q15 7 11 -32q-2 -27 -11 -60l-547 -321q-6 -3 -6 -9.5t6 -9.5l547 -280q1 -3 2 -8t4.5 -19t4.5 -25.5t1.5 -23t-2.5 -17t-10 -2.5z" />
<glyph unicode="=" horiz-adv-x="835" d="M99.5 398.5q2.5 -11.5 11.5 -11.5h614q2 5 4 13.5t6 26t1.5 29t-11.5 11.5h-614q-2 -5 -4 -13.5t-6 -26t-1.5 -29zM99.5 694q2.5 -12 11.5 -12h614q2 5 4 13.5t6 26.5t1.5 30t-11.5 12h-614q-2 -5 -4 -13.5t-6 -26.5t-1.5 -30z" />
<glyph unicode="&#x3e;" horiz-adv-x="808" d="M57.5 203.5q-0.5 -11.5 2.5 -17t10 -2.5l669 342q25 72 0 84l-669 381q-15 7 -11 -32q2 -27 11 -60l546 -321q6 -3 6 -9.5t-6 -9.5l-546 -280q-1 -3 -2 -8t-4.5 -19t-4.5 -25.5t-1.5 -23z" />
<glyph unicode="?" horiz-adv-x="1026" d="M178 1200q0 -19 18 -24t29 10q42 59 112 92t157 33q122 0 202 -79t80 -198q0 -86 -37.5 -147.5t-169.5 -190.5q-106 -101 -138 -163.5t-32 -165.5q0 -7 4 -31q3 -12 21 -12q27 7 47 33t25 57q9 51 44 100t115 125q16 16 42.5 40.5t33.5 33.5q148 142 148 319 q0 154 -112 257.5t-280 103.5q-94 0 -211 -50q-30 -15 -47 -25.5t-34 -31.5t-17 -45v-41zM367 53q0 -34 22.5 -57t56.5 -23t57 23t23 57q0 32 -23 55t-57 23t-56.5 -22.5t-22.5 -55.5z" />
<glyph unicode="@" horiz-adv-x="1562" d="M123 461q0 -212 87 -368.5t245 -239.5q30 -17 59 11q27 25 14 48q-4 7 -12 12q-135 76 -207.5 216.5t-72.5 332.5q0 283 161 462t416 179q124 0 231 -39.5t182 -108.5t117.5 -166.5t42.5 -211.5q0 -106 -32 -205.5t-84.5 -160t-108.5 -60.5q-44 0 -61 25.5t-17 93.5 q0 43 19 182l41 309q4 33 -17.5 58.5t-54.5 25.5h-22l-9 -57q0 -7 -8 -7.5t-14 5.5q-76 73 -189 73q-97 0 -181.5 -64.5t-134.5 -173t-50 -233.5q0 -142 71.5 -230.5t188.5 -88.5q91 0 158.5 57.5t105.5 169.5q-4 -36 -4 -41q0 -188 154 -188q87 0 163.5 69.5t122 187 t45.5 251.5q0 130 -48.5 242t-133.5 191t-206 124t-261 45q-202 0 -360.5 -92.5t-247 -258.5t-88.5 -376zM578 397q0 162 82 279t196 117q44 0 91 -27.5t77 -69.5l-14 -114q-26 -192 -99 -306t-168 -114q-76 0 -120.5 63t-44.5 172z" />
<glyph unicode="A" horiz-adv-x="1212" d="M30 16q7 -16 25 -16h51q33 0 33 61q0 11 13 48l143 378q4 19 24 19h537q17 0 25 -19l145 -378q16 -47 16 -58q0 -51 23 -51h90q17 0 23 16q2 6 2 12q0 10 -6 19t-9 21l-14 41l-457 1177q-14 35 -46 57.5t-70 22.5h-21q-19 0 -30 -16.5t-11 -38.5t-12 -49l-438 -1137 q-22 -58 -33 -78q-6 -9 -6 -18q0 -6 3 -13zM334 604l241 625q3 5 8 5t7 -5l246 -625q1 -3 1 -5q0 -3 -2 -6q-4 -5 -10 -5h-481q-6 0 -10 5q-2 3 -1 6q0 2 1 5z" />
<glyph unicode="B" horiz-adv-x="1214" d="M186 66v-6q0 -22 12 -40q14 -20 38 -20h321q272 0 408 90q60 38 97.5 118.5t37.5 172.5q0 149 -82.5 238t-233.5 104q-5 2 8 9q1 0 3 1q106 31 163.5 109.5t57.5 191.5q0 89 -39.5 161t-110.5 112q-63 36 -126.5 47.5t-196.5 11.5h-307q-24 0 -38 -20q-12 -18 -12 -40v-6 v-20v-1194v-20zM301 104v549q0 10 8 17.5t17 7.5h219q204 0 303 -55q58 -32 93.5 -100t35.5 -144q0 -72 -33.5 -139.5t-87.5 -102.5q-92 -57 -293 -57h-237q-9 0 -17 7t-8 17zM301 784v476q0 10 8 17t17 7h174q180 0 260 -27q61 -23 97 -84t36 -141q0 -71 -29 -131t-80 -94 q-66 -47 -225 -47h-233q-9 0 -17 7t-8 17z" />
<glyph unicode="C" horiz-adv-x="1179" d="M100 678q0 -201 75.5 -362.5t210 -252t302.5 -90.5q74 0 155.5 27t145.5 74q5 2 11.5 5.5t7.5 4.5q6 4 29.5 16.5t33.5 23t10 26.5v57q0 20 -19.5 28.5t-31.5 -6.5q-64 -77 -155 -123.5t-183 -46.5q-206 0 -338.5 173.5t-132.5 439.5q0 180 63.5 325.5t175.5 227.5 t251 82q111 0 194 -58q28 -20 59 -20q13 0 28 4q47 12 48 57q1 21 1 37q0 53 -8 53q-4 0 -9 -14q-19 -43 -45 -43q-10 0 -37 12q-126 60 -240 60q-130 0 -242 -53t-191 -146.5t-124 -227t-45 -290.5z" />
<glyph unicode="D" horiz-adv-x="1286" d="M186 72v-7q0 -23 11 -43q13 -22 36 -22h170q164 0 271 22.5t205 77.5q157 89 247.5 247.5t90.5 342.5q0 164 -75.5 308.5t-209.5 236.5q-103 71 -219 101t-289 30h-191q-25 0 -37 -22q-11 -19 -10 -44v-8v-22v-1178v-20zM301 104v1158q0 9 8 15.5t17 6.5h96 q151 0 253.5 -28.5t190.5 -94.5q108 -82 169 -207t61 -264q0 -141 -63 -272t-169 -213q-166 -125 -432 -125h-106q-9 0 -17 7.5t-8 16.5z" />
<glyph unicode="E" horiz-adv-x="1075" d="M186 66v-7q0 -23 11 -41q13 -20 36 -20h760q25 0 25 43q0 11 -2 25q-3 23 -30 27t-52 -7q-21 -8 -64 -8h-544q-10 0 -17.5 7.5t-7.5 16.5v543q0 9 7.5 16t17.5 7h477h18q29 -3 51.5 5.5t22.5 31.5v12q0 35 -56 35h-12q-2 0 -6.5 -1t-7.5 -1h-487q-10 0 -17.5 7.5 t-7.5 16.5v486q0 9 7.5 16.5t17.5 7.5h536q17 0 37 -4q24 -10 51.5 -6t30.5 26q1 13 1 24q0 40 -21 40h-728q-23 0 -36 -20q-11 -17 -11 -39v-7v-20v-1194v-18z" />
<glyph unicode="F" horiz-adv-x="929" d="M184 53q-1 -5 -1 -9q0 -15 8 -28q10 -16 30 -16h43q19 0 30 16t9 37q-2 10 -2 39v567h479q6 0 16 -1t13 -1q20 -3 36.5 5t16.5 26v17q0 34 -53 34h-12h-17h-479v545h537q30 0 43 -8q12 -7 26.5 -4t14.5 16q0 32 -23 55t-55 23h-623q-20 0 -28.5 -20t-6.5 -46v-20v-1188 q0 -29 -2 -39z" />
<glyph unicode="G" horiz-adv-x="1275" d="M102 664q0 -307 169 -499t438 -192q184 0 346 78q39 20 61.5 59.5t22.5 86.5v237q0 69 -31.5 121.5t-89.5 56.5q-20 1 -35 1q-50 0 -50 -8q0 -3 11 -9q8 -4 12 -4q39 -14 53.5 -33t14.5 -57v-340q0 -23 -16 -33q-128 -70 -281 -70q-145 0 -259.5 78.5t-178.5 219.5 t-64 319q0 134 39 251t106.5 200t162.5 130.5t204 47.5q199 0 310 -168q11 -19 33 -16t22 26v55q0 38 -28.5 66t-76.5 53l-22 14q-113 58 -246 58q-179 0 -322 -93.5t-224 -260.5t-81 -375z" />
<glyph unicode="H" horiz-adv-x="1318" d="M182 53v-6q0 -17 9 -31q11 -16 30 -16h43q20 0 30 16t7 37q0 4 -1 17t-1 22v572q0 8 5.5 13t12.5 5h684q6 0 11.5 -5.5t5.5 -12.5v-572q0 -29 -2 -39q-3 -21 8 -37t31 -16h43q20 0 30 16q8 12 8 28q0 5 -1 9q0 4 -1 17t-1 22v1180q0 8 1 21t1 18q1 5 1 9q0 16 -8 29 q-10 17 -30 17h-43q-20 0 -31 -17t-8 -38q2 -10 2 -39v-490q0 -7 -5.5 -12.5t-11.5 -5.5h-684q-7 0 -12.5 5t-5.5 13v490q0 19 4 39q2 22 -9 38.5t-30 16.5h-43q-19 0 -30 -16q-9 -14 -9 -32v-7q2 -10 2 -39v-1180q0 -29 -2 -39z" />
<glyph unicode="I" horiz-adv-x="487" d="M184 55q-1 -4 -1 -9q0 -16 9 -29q11 -17 29 -17h45q20 0 30 16q8 12 7 28v9t-1 17.5t-1 21.5v1182q0 9 1 22t1 17q1 5 0 9q0 15 -7 28q-10 16 -30 16h-45q-18 0 -29 -16q-9 -13 -9 -28q0 -4 1 -9q2 -10 2 -39v-1182q0 -27 -2 -37z" />
<glyph unicode="J" horiz-adv-x="866" d="M14 176q0 -96 64 -137q104 -66 237 -66q76 0 147.5 24.5t115.5 65.5q57 54 80.5 127t23.5 193v891q0 29 2 39v6q0 17 -8 31q-11 16 -29 16h-45q-20 0 -29.5 -18.5t-7.5 -42.5q2 -10 2 -31v-889q0 -326 -254 -326q-174 0 -262 134q-9 13 -23 6t-14 -23z" />
<glyph unicode="K" horiz-adv-x="1153" d="M184 55q-1 -5 -1 -9q1 -16 9 -29q10 -17 29 -17h45q18 0 28.5 16.5t8.5 36.5q-2 10 -2 39v348q0 124 82 209l55 58l68 71q6 6 15.5 4.5t13.5 -8.5l409 -690q24 -39 62 -64t81 -28t68 -3q34 0 34 5q0 2 -7 6q-51 23 -69.5 41.5t-59.5 87.5l-439 727q-14 21 4 39l340 358 q44 47 78 70q14 11 11.5 27t-19.5 16h-59q-12 0 -22.5 -6.5t-17 -14t-17 -22t-15.5 -20.5q-2 -2 -12 -17l-568 -598q-5 -4 -10.5 -2t-5.5 8v580q0 29 2 41q2 20 -8.5 35.5t-28.5 15.5h-45q-20 0 -30 -16q-8 -12 -8 -28q0 -5 1 -9q0 -4 1 -17t1 -22v-1182q0 -8 -1 -20.5 t-1 -16.5z" />
<glyph unicode="L" horiz-adv-x="884" d="M186 1311q-1 5 -1 9q0 15 8 28q10 16 30 16h45q20 0 30 -16t7 -37q-2 -10 -2 -39v-803q0 -179 27 -258q20 -54 70 -88.5t118 -42.5q14 -2 28 -1q68 0 135 35q81 43 144 117q12 17 30.5 9t18.5 -29v-59q0 -12 -8 -22t-16 -15.5t-24.5 -14t-22.5 -12.5q-5 -5 -19 -12 q-58 -41 -154 -67q-64 -17 -115 -17q-25 0 -46 4q-155 33 -221 151q-36 64 -48 128t-12 196v801q0 29 -2 39z" />
<glyph unicode="M" horiz-adv-x="1658" d="M188 53q-3 -9 -3 -18q1 -10 5 -19q8 -16 27 -16h8q20 0 33.5 16t13.5 37q0 31 2 47l170 1117q1 6 6.5 6.5t6.5 -4.5l360 -981q6 -20 17.5 -20t29.5 20q26 31 39 71l322 893q1 4 8 4t8 -4l139 -1102q5 -20 9 -32q9 -68 45 -68h47q23 0 29 23q3 10 2 19q0 13 -5 26 q-7 21 -12 41l-154 1175q-11 49 -43 83q-27 29 -61 29q-6 0 -12 -1q-20 -3 -25 -17l-328 -917q-2 -6 -5 -6t-5 6l-340 917q-3 14 -24 17q-7 1 -14 1q-34 0 -59 -28q-30 -34 -42 -84l-182 -1175q-1 -8 -7 -30.5t-6 -25.5z" />
<glyph unicode="N" horiz-adv-x="1419" d="M201 45q-2 -8 -2 -16q1 -8 3 -15q6 -14 21 -14h49q23 0 23 34q0 10 -2 23q-4 20 -4 39v1080q0 5 5.5 6.5t8.5 -2.5l770 -1102q16 -21 22.5 -29.5t22.5 -27t26 -25.5q12 -6 26 -14q11 -6 20 -6h7q13 2 26 14q4 2 4 10v1257q0 19 4 43q1 9 1 17q0 16 -5 29q-8 20 -29 20 h-29q-20 0 -29 -16.5t-3 -34.5q8 -21 8 -58v-1054q0 -6 -4.5 -8.5t-7.5 2.5l-816 1169q-12 19 -49 19q-7 0 -14 -1q-47 -3 -47 -78v-12v-20v-1168q0 -47 -6 -61z" />
<glyph unicode="O" horiz-adv-x="1490" d="M100 678q0 197 85 361.5t233.5 259t326.5 94.5q177 0 325 -94.5t233.5 -258.5t85.5 -360q0 -194 -86 -357t-234.5 -256.5t-325.5 -93.5q-176 0 -324 93.5t-233.5 256t-85.5 355.5zM221 682q0 -171 69.5 -314.5t189.5 -226t263 -82.5q144 0 264.5 82.5t189.5 226t69 314.5 t-69 314.5t-189.5 226t-264.5 82.5q-143 0 -263 -82.5t-189.5 -226t-69.5 -314.5z" />
<glyph unicode="P" horiz-adv-x="1097" d="M184 53q2 10 2 39v1188v20q-2 25 12 45.5t38 20.5h276q171 0 261.5 -18t152.5 -64q64 -47 103.5 -131t39.5 -174q0 -105 -53 -198.5t-139 -139.5q-69 -35 -148 -48t-227 -13h-176q-9 0 -17 -8t-8 -17v-463q0 -9 1 -22t1 -17q3 -21 -7 -37t-30 -16h-43q-20 0 -31 16 q-9 13 -9 28q0 5 1 9zM301 682q0 -9 8 -16t17 -7h166q148 0 206 11t113 49q63 44 100 113.5t37 142.5q0 67 -32.5 138.5t-79.5 109.5q-51 38 -111.5 49.5t-212.5 11.5h-186q-9 0 -17 -7.5t-8 -16.5v-578z" />
<glyph unicode="Q" horiz-adv-x="1490" d="M100 678q0 197 85 361.5t233.5 259t326.5 94.5q177 0 325 -94.5t233.5 -258.5t85.5 -360q0 -194 -86 -357t-234.5 -256.5t-325.5 -93.5q-176 0 -324 93.5t-233.5 256t-85.5 355.5zM221 682q0 -171 69.5 -314.5t189.5 -226t263 -82.5q144 0 264.5 82.5t189.5 226t69 314.5 t-69 314.5t-189.5 226t-264.5 82.5q-143 0 -263 -82.5t-189.5 -226t-69.5 -314.5zM757 -118h3q7 0 22 -7q204 -101 365 -101q19 0 37 1q29 4 53 4q42 0 69 -12q19 -9 19 -22q0 -14 -20 -32q-47 -36 -108 -47q-27 -4 -55 -4q-33 0 -68 7q-61 13 -98 25.5t-73 29.5 q-58 29 -117 99q-33 39 -33 53q0 4 4 6z" />
<glyph unicode="R" horiz-adv-x="1173" d="M184 53q2 10 2 39v1188v20q-2 26 12 46t38 20h305q129 0 208.5 -15.5t139.5 -52.5q79 -47 124.5 -129.5t45.5 -179.5q0 -89 -41 -170t-109 -127q-40 -26 -83.5 -38.5t-118.5 -20.5q-8 0 -13.5 -8t-1.5 -15l348 -504q49 -68 64 -79q17 -14 49 -27q-4 -2 -10.5 -6t-28.5 -9 q-15 -4 -30 -4q-6 0 -13 1q-89 7 -131 69l-309 467q-32 50 -83.5 77.5t-111.5 27.5h-110q-9 0 -17 -7.5t-8 -17.5v-506q0 -9 1 -22t1 -17q3 -21 -7 -37t-30 -16h-43q-19 0 -30 16q-9 14 -9 31v6zM301 731q0 -10 8 -17t17 -7h221q120 0 174.5 9.5t97.5 37.5q53 34 86 99.5 t33 135.5q0 67 -30.5 131t-80.5 99q-49 35 -115 50t-169 15h-217q-9 0 -17 -7t-8 -17v-529z" />
<glyph unicode="S" horiz-adv-x="1054" d="M121 1024q0 -79 35 -147q35 -74 101.5 -121.5t207.5 -100.5q136 -50 191 -74t87 -49q39 -30 63.5 -82.5t24.5 -109.5q0 -122 -93.5 -201.5t-237.5 -79.5q-188 0 -297 121q-11 12 -27.5 15t-28.5 -5t-12 -24v-33q0 -17 7 -31t26 -27.5t26.5 -18.5t34.5 -19l13 -4 q50 -25 130.5 -42.5t147.5 -17.5q189 0 310.5 107t121.5 272q0 74 -26 133q-33 76 -105 128.5t-213 105.5q-173 70 -178 72q-103 41 -145.5 95.5t-42.5 145.5q0 117 87.5 195t219.5 78q176 0 258 -117q11 -17 29 -11.5t18 25.5v39q0 18 -8 33.5t-24 28.5t-29 21t-35 19 q-64 28 -110 39t-103 11q-181 0 -302.5 -106t-121.5 -263z" />
<glyph unicode="T" horiz-adv-x="1009" d="M47 1286q0 -12 12 -18t21 2q20 14 65 14h316v-1173q0 -38 -2 -52q-2 -24 8 -41.5t29 -17.5h45q20 0 30 16t7 37q-3 15 -3 39v1192h316q47 0 67 -14q10 -6 22.5 -1t12.5 17q0 32 -23 56t-55 24h-788q-33 0 -56.5 -23.5t-23.5 -56.5z" />
<glyph unicode="U" horiz-adv-x="1318" d="M178 1313q2 -10 2 -39v-799q0 -137 17.5 -208t68.5 -138q114 -156 385 -156q121 0 221 30.5t160 86.5q59 56 83 137.5t24 225.5v821q0 8 1 21t1 18q1 4 1 9q0 16 -8 28q-10 16 -30 16h-10q-19 0 -30.5 -16.5t-8.5 -36.5q2 -10 2 -39v-795q0 -217 -70 -307 q-40 -53 -128 -83t-202 -30q-191 0 -282 107q-46 55 -63 119t-17 190v799q0 8 1 21t1 18q3 20 -7.5 36.5t-29.5 16.5h-43q-19 0 -31 -16q-9 -13 -9 -29q0 -4 1 -8z" />
<glyph unicode="V" horiz-adv-x="1009" d="M40 1348q-2 -7 -3 -13q0 -10 6 -20l14 -35l430 -1260q10 -32 48 -32h28q34 0 47 32l396 1260q10 25 12 29q7 12 7 25q1 6 -1 12q-4 20 -23 20h-28q-18 0 -27.5 -14.5t-17.5 -40.5l-8 -31l-353 -1139q0 -1 -2 -1t-2 1l-385 1139l-8 23q-4 16 -4 20q0 39 -19 39l-84 4 q-17 0 -23 -18z" />
<glyph unicode="W" horiz-adv-x="1376" d="M36 1343q-3 -10 -3 -20q0 -13 6 -25q2 -6 12 -41l154 -1175q11 -50 43 -84q26 -28 60 -28q7 0 14 1q19 4 22 17l328 917q2 6 5 6t5 -6l340 -917q6 -16 25 -19q7 -1 13 -1q36 0 61 28q30 34 42 86l180 1175q1 7 7.5 29t7.5 27q3 9 3 17q0 12 -5 20q-8 16 -27 16h-10 q-19 0 -32 -17t-13 -38q0 -13 -4 -45l-170 -1119q0 -5 -6 -5t-7 5l-360 981q-10 38 -45 1q-28 -32 -41 -74l-322 -891q-1 -4 -8 -4t-8 4l-139 1102q-3 22 -6 32q-9 68 -47 68h-45q-22 0 -30 -23z" />
<glyph unicode="X" horiz-adv-x="1040" d="M44 15q4 -15 19 -15h68q13 0 21.5 9.5t12 20t7.5 27.5q2 10 21 45l313 510q4 8 12 8t12 -8l299 -528q11 -18 13 -25q2 -5 6.5 -19t7.5 -20.5t9.5 -13t15.5 -6.5h94q17 0 21 16q1 4 1 8q0 11 -8 21q-20 24 -37 57l-340 592q-13 23 0 43l322 547q20 30 47 49q10 7 5 20 t-19 13h-56q-13 0 -23.5 -12t-14 -23t-9.5 -31l-8 -16l-293 -477q-5 -7 -12 -7t-12 7l-265 477q-10 20 -10 39q0 17 -7 30t-21 13h-111q-16 0 -20 -17t6 -30q16 -21 43 -68l307 -526q14 -21 0 -41l-346 -561q-30 -52 -64 -82q-8 -8 -8 -18q0 -4 1 -8z" />
<glyph unicode="Y" horiz-adv-x="974" d="M24 1349q-1 -5 -1 -9q0 -11 8 -21q3 -3 16 -25l389 -788q10 -23 10 -45v-369q0 -29 -2 -39q-3 -21 7 -37t30 -16h45q20 0 30 16t7 37q-2 10 -2 39v369q0 22 10 45l369 743q30 58 37 68q8 10 8 22q0 5 -2 10q-5 17 -22 17h-46q-9 0 -16.5 -4t-12.5 -14.5t-7.5 -17 t-7 -22.5t-5.5 -20q0 -6 -8 -22l-323 -670q-3 -6 -10.5 -6t-10.5 6l-332 686q-9 15 -12 27q-2 4 -5.5 15t-6 16.5t-7 12.5t-10 10t-12.5 3h-86q-15 0 -19 -17z" />
<glyph unicode="Z" horiz-adv-x="1040" d="M63 0h916q25 0 25 53v15q-4 23 -29.5 28.5t-48.5 -6.5q-27 -10 -60 -10h-643q-7 0 -11 7t1 13l754 1215q18 51 0 51h-848q-22 0 -22 -39q0 -10 1 -22q3 -23 31.5 -25.5t54.5 4.5q3 0 15 1t20 1h588q9 0 13 -7t-1 -15l-756 -1215q-8 -24 -8 -36.5t8 -12.5z" />
<glyph unicode="[" horiz-adv-x="520" d="M143 -68q0 -47 34.5 -80.5t80.5 -33.5h78q2 5 4 13t6 24.5t1.5 27.5t-11.5 11h-86q-2 0 -4 2t-2 4v1568q0 7 8 7h94q2 5 4 13t6 25t1.5 28t-11.5 11h-82q-50 0 -85.5 -34.5t-35.5 -85.5v-1500z" />
<glyph unicode="\" horiz-adv-x="831" d="M108 1629q1 -2 1 -3l561 -1970q5 -20 26 5q24 28 21 52l-565 1973q-5 20 -24 -2q-24 -29 -20 -55z" />
<glyph unicode="]" horiz-adv-x="520" d="M160.5 1541q2.5 11 11.5 11h82q51 0 86 -34.5t35 -85.5v-1500q0 -47 -34 -80.5t-81 -33.5h-78q-25 76 0 76h86q6 0 6 6v1568q0 7 -6 7h-96q-2 5 -4 13t-6 25t-1.5 28z" />
<glyph unicode="^" horiz-adv-x="983" d="M72 809q-6 -9 1 -19.5t19 -9.5q72 10 111 70l274 426q5 6 14 6t13 -6l276 -426q39 -60 111 -70q12 -2 20 8.5t2 20.5l-313 489q-22 32 -57 51t-74 19q-38 0 -57 -29zM4925 -2961q-6 -9 1.5 -19.5t19.5 -9.5q72 10 111 70l274 426q5 6 14 6t13 -6l276 -426q39 -60 111 -70 q12 -2 20 8.5t2 20.5l-313 489q-22 32 -57 51t-74 19t-58 -29z" />
<glyph unicode="_" horiz-adv-x="1024" d="M-11.5 -221.5q2.5 -11.5 11.5 -11.5h1024q2 5 4 13t6 25.5t1.5 29t-11.5 11.5h-1024q-2 -5 -4 -13t-6 -25.5t-1.5 -29z" />
<glyph unicode="`" horiz-adv-x="1024" d="M268 1246l2 -23l404 -90q10 -2 13 11.5t1 27.5l-2 14l-391 123q-16 4 -22 -17.5t-5 -45.5z" />
<glyph unicode="a" d="M102 256q0 -118 93 -200.5t225 -82.5q110 0 196.5 58.5t126.5 161.5q7 7 7 4q0 -76 10 -115q10 -45 46 -73q29 -22 63 -22q9 0 18 1q11 2 11 9q0 1 -1 3q-53 98 -53 246q0 65 4 133v88v98v25q0 139 -7.5 192.5t-33.5 106.5q-34 65 -111 100t-184 35q-154 0 -281 -78 q-25 -16 10 -34q30 -16 62 -16q11 0 21 2q12 2 20 7q74 45 176 45q114 0 170.5 -66.5t57.5 -205.5q0 -13 -13 -16q-45 -28 -101 -48.5t-159 -44.5q-103 -22 -192 -59q-84 -34 -132.5 -102t-48.5 -152zM203 258q0 92 62.5 142t232.5 94q97 23 217 79l28 13q1 1 2 1q1 -1 2 -1 q3 -2 3 -4v-70q0 -212 -86.5 -338.5t-231.5 -126.5q-95 0 -162 61.5t-67 149.5z" />
<glyph unicode="b" horiz-adv-x="1110" d="M164 0q0 -17 43 -10q21 3 33 19.5t14 39.5l4 47l8 72v16q0 4 3 -3l1 -3q43 -98 127 -151.5t197 -53.5q183 0 297.5 149t114.5 388q0 229 -113 371.5t-293 142.5q-111 0 -197.5 -58.5t-126.5 -160.5q-1 -2 -2 -5l-2 -3v569q0 24 -43 24q-10 0 -22 -1q-24 -3 -32 -26.5 t-1 -51.5q4 -20 4 -37v-811l2 -154l-6 -127q-2 -29 -3.5 -66.5t-2.5 -58t-2 -32.5q0 -1 -0.5 -4t-1 -9t-0.5 -12zM270 498q0 98 14 161.5t48 122.5q44 80 113.5 124t150.5 44q143 0 225 -116t82 -318q0 -221 -82.5 -345t-230.5 -124q-146 0 -233 122t-87 329z" />
<glyph unicode="c" horiz-adv-x="901" d="M104 492q0 -224 120.5 -371.5t303.5 -147.5q126 0 224 70q43 29 43 82v47q0 9 -8.5 13t-12.5 -3q-37 -63 -100 -99t-137 -36q-145 0 -237.5 125t-92.5 320q0 196 90 327t225 131q119 0 199 -92q13 -17 34 -10t21 29v26q0 45 -80 80l-12 6q-46 21 -76.5 28t-72.5 7 q-121 0 -220 -69t-155 -191t-56 -272z" />
<glyph unicode="d" horiz-adv-x="1112" d="M102 473q0 -210 120 -355t292 -145q112 0 204 64.5t126 165.5q0 5 2 6v-47l8 -72l2 -47q2 -22 14.5 -39t32.5 -20q45 -8 45 10q0 6 -0.5 11.5t-1 8.5t-0.5 4q-1 12 -2 33t-2.5 58t-3.5 67l-6 127v1063q0 24 -42 24q-10 0 -22 -1q-24 -3 -32 -28t0 -50q2 -10 2 -37v-447 q0 -1 -1 0.5t-3 3.5l-3 3q-47 92 -128 141t-185 49q-178 0 -297 -157.5t-119 -393.5zM207 489q0 206 86.5 333.5t228.5 127.5q139 0 221.5 -113t90.5 -311v-32q0 -202 -87 -324.5t-233 -122.5q-138 0 -222.5 122t-84.5 320z" />
<glyph unicode="e" d="M104 504q0 224 118 372t298 148q172 0 274.5 -124t102.5 -333v-32q0 -5 -4 -10t-8 -5l-666 -71q-8 0 -4 -13q4 -38 7 -62.5t8.5 -46t8 -30.5t12.5 -34t15 -38q43 -84 116.5 -131t162.5 -47q91 0 169 47.5t130 136.5q4 10 13 1q5 -5 5 -11v-51q0 -56 -28 -80 q-54 -55 -134.5 -86t-169.5 -31q-188 0 -307 148t-119 383zM215 526q0 -12 6 -12l565 72q11 0 11 10v27q0 140 -80.5 233.5t-200.5 93.5h-6q-88 0 -154 -56q-68 -58 -103 -153.5t-38 -214.5z" />
<glyph unicode="f" horiz-adv-x="555" d="M96 932h99q8 0 8 -8v-834q0 -25 -4 -35q-5 -21 4.5 -38t29.5 -17h33q21 0 28 22t3 50v18v834q0 8 8 8h252q11 32 11 48.5t-11 16.5h-252q-8 0 -8 9v90q0 116 37 169.5t115 53.5q43 0 73 -21q23 -18 50 -12t26 33q0 31 -16 39q-63 35 -140 35q-121 0 -180 -73t-59 -224 v-90q0 -9 -8 -9h-99q-12 -33 -12 -49t12 -16z" />
<glyph unicode="g" d="M74 219q3 113 92 166q22 11 32.5 34t0.5 44q-24 40 -38 98t-14 107q0 143 104.5 250.5t250.5 107.5q78 0 149 -32t123 -89q-7 16 -22.5 44.5t-18.5 33.5q-12 26 -12 41q0 23 27 23q15 -4 20 -9q60 -64 82 -166q16 -75 16 -152q0 -28 -2 -56q-12 -161 -112 -269t-244 -108 q-83 0 -166 39q-44 20 -77.5 20t-55.5 -20q-43 -40 -43 -95v-8q0 -27 12 -57q14 -34 41.5 -62t76.5 -40q24 -7 52 -7q26 0 55 6q104 21 197 33q70 8 125 8q94 0 141 -24q37 -17 59.5 -53.5t22.5 -81.5q0 -114 -117 -212t-288 -122q-57 -7 -107 -7q-113 0 -189 36 q-109 53 -112 172q0 39 25.5 78.5t66.5 68.5q6 5 8 12.5t-4 10.5q-70 26 -113.5 92t-43.5 145zM238 -166q0 -86 80 -127q56 -28 135 -28q37 0 79 6q131 17 223.5 84.5t92.5 144.5q0 70 -80 88q-33 8 -87 8q-72 0 -181 -14q-46 -7 -92 -12.5t-68 -7.5l-23 -1q-18 4 -24 -8 q-55 -63 -55 -133zM242 670q0 -126 76 -211.5t188 -85.5t192 86.5t80 206.5q0 125 -73 200.5t-193 75.5q-117 0 -193.5 -77.5t-76.5 -194.5z" />
<glyph unicode="h" horiz-adv-x="1042" d="M174 1309q4 -10 4 -35v-1184v-18q-2 -13 -2 -24q0 -48 33 -48h33q32 0 32 48q0 11 -2 24v18v518q0 7 4 23q66 162 146.5 240.5t181.5 78.5q98 0 138 -62.5t40 -215.5v-477q0 -72 11 -115q9 -44 45 -72q30 -23 66 -23q8 0 16 1q11 2 11 9q0 2 -1 5q-53 98 -53 246v467 q0 90 -12 138t-46 89q-31 40 -82.5 62t-113.5 22q-114 0 -205.5 -68t-138.5 -188q0 -2 -4 -4q-3 0 -3 2v600q0 21 -41 21q-11 0 -24 -1q-23 -2 -31 -26q-5 -13 -5 -27q0 -12 3 -24z" />
<glyph unicode="i" horiz-adv-x="450" d="M143 1303q0 -32 23 -56t55 -24q33 0 56.5 23.5t23.5 56.5t-23.5 56t-56.5 23q-32 0 -55 -23.5t-23 -55.5zM174 942q4 -20 4 -35v-817q0 -14 -2 -20q-1 -8 -1 -15q0 -55 34 -55h33q32 0 31 46q0 11 -1 24v20v905q0 24 -43 24q-10 0 -22 -1q-23 -3 -31 -26q-5 -13 -5 -26 q0 -12 3 -24z" />
<glyph unicode="j" horiz-adv-x="452" d="M-20 -338v-16q53 -29 108 -29q100 0 142 69t42 232v1079q0 22 -40 22q-10 0 -23 -1q-24 -1 -32 -25.5t-1 -52.5q2 -10 2 -35v-987q0 -138 -19.5 -182.5t-80.5 -44.5q-21 0 -31 4q-24 7 -45.5 -1.5t-21.5 -31.5zM143 1303q0 -34 23 -57t55 -23q33 0 56.5 23.5t23.5 56.5 t-23.5 56t-56.5 23q-32 0 -55 -23.5t-23 -55.5z" />
<glyph unicode="k" horiz-adv-x="874" d="M174 1311q-3 12 -3 24q1 14 5 27q8 24 31 27q12 1 22 1q43 0 43 -24v-891q0 -3 3 -4t6 2l387 432q3 4 8 12.5t8 12.5q9 22 13.5 32t17.5 22.5t28 12.5h37q20 0 27.5 -18.5t-6.5 -32.5q-24 -21 -58 -61l-227 -252q-9 -9 -2 -27q29 -81 100.5 -230t127.5 -258l57 -108 q76 -112 147 -149l66 -19q20 -5 20 -12q0 -5 -8.5 -9t-17.5 -5l-9 -2q-27 2 -43 2q-89 9 -144.5 50t-121.5 136q-199 391 -250 526q-4 12 -12 4l-74 -81q-80 -89 -80 -211v-150v-18q2 -13 2 -24q0 -48 -34 -48h-31q-34 0 -34 56q0 7 1 16q2 6 2 18v1184q0 17 -4 37z" />
<glyph unicode="l" horiz-adv-x="542" d="M199 281q0 -163 42 -232t142 -69q61 0 109 28v19q0 22 -22.5 30.5t-45.5 -0.5q-16 -4 -29 -4q-63 0 -82.5 44.5t-19.5 183.5v993q0 17 4 37q7 28 -1 51.5t-32 26.5q-12 1 -22 1q-43 0 -43 -24v-1085z" />
<glyph unicode="m" horiz-adv-x="1458" d="M176 985q-3 -14 -3 -28q0 -15 3 -31q2 -6 2 -19v-817q0 -14 -2 -18v-13q0 -59 33 -59h33q32 0 32 48q0 11 -2 24v18v584q0 8 4 24q23 56 60 113q47 70 93.5 104.5t111.5 34.5q22 0 36 -2t37.5 -17.5t38 -44t25.5 -86.5q10 -54 10 -127v-14v-569q0 -25 -2 -35 q-5 -21 4.5 -38t28.5 -17h33q32 0 32 58v14q-2 4 -2 18v588q0 15 6 27q48 120 113 182.5t156 62.5q49 -4 72 -21q67 -52 67 -258v-12v-464q0 -72 8 -113q12 -46 48 -74q30 -23 65 -23q8 0 16 1q9 2 9 9q0 2 -1 5q-51 94 -51 246v446q0 68 -9 122t-21.5 88.5t-33.5 59 t-38.5 36t-43 18t-39.5 7.5t-36 1q-92 0 -155.5 -48.5t-135.5 -160.5q-2 -7 -8 4l-2 4q-10 57 -31 97t-42 60t-52 30.5t-48.5 12t-43.5 1.5q-102 0 -163 -49.5t-109 -157.5q-7 -7 -7 0v180q0 24 -36 24q-12 0 -29 -3q-25 -3 -31 -33z" />
<glyph unicode="n" horiz-adv-x="1042" d="M177 985q-2 -14 -2 -27q0 -16 3 -32v-19v-817v-18q-2 -13 -2 -24q0 -48 33 -48h33q32 0 32 58v14q0 3 -1 9t-1 9v528q41 149 135 240.5t203 91.5q92 0 132 -55t40 -180v-520q0 -56 11 -113q9 -46 47 -74q31 -23 66 -23q8 0 16 1q9 2 9 9q0 2 -1 5q-53 98 -53 246v469 q0 81 -11 128t-39 85q-34 43 -92 69.5t-119 26.5q-113 0 -209 -78t-131 -198q-1 -3 -4 -3v252q0 24 -36 24q-12 0 -29 -3q-25 -3 -30 -33z" />
<glyph unicode="o" horiz-adv-x="1044" d="M104 504q0 -225 125 -378t308 -153q184 0 308 152t124 377q0 223 -124 372.5t-308 149.5q-183 0 -308 -149.5t-125 -370.5zM207 500q0 188 96 319t234 131t234.5 -130.5t96.5 -317.5q0 -189 -96.5 -322t-234.5 -133q-135 0 -232.5 133t-97.5 320z" />
<glyph unicode="p" horiz-adv-x="1110" d="M123 -522q53 98 53 246v1183q0 13 -2 19q-1 15 -1 27q0 63 38 67q18 2 33 1.5t24 -6.5t8 -18l-18 -223q0 -2 2 -2t2 2q31 76 60 117q46 63 117 98t151 35q116 0 210.5 -68t147.5 -187.5t53 -266.5q0 -228 -117.5 -378.5t-295.5 -150.5q-112 0 -197 58.5t-117 158.5 q-4 4 -4 3v-521q0 -60 -10 -112q-9 -46 -46 -74q-30 -22 -65 -22q-9 0 -18 1q-10 0 -10 6q0 3 2 7zM266 498q0 -200 89.5 -325.5t230.5 -125.5q137 0 226 131.5t89 333.5q0 189 -92 313.5t-231 124.5q-138 0 -225 -125.5t-87 -326.5z" />
<glyph unicode="q" horiz-adv-x="1110" d="M104 506q0 -232 114.5 -382.5t291.5 -150.5q109 0 197.5 60.5t126.5 161.5l2.5 2.5t1.5 -0.5v-473q0 -25 -2 -35q-5 -22 4 -40t30 -18h31q20 0 30 17.5t5 38.5q-2 10 -2 37v960q0 131 6.5 184t36.5 129q1 2 1 4q0 9 -19 9q-17 0 -49 -7l-25 -6q-24 -72 -30.5 -104.5 t-6.5 -81.5q0 -25 2 -39h-2q-32 116 -121 184t-207 68q-181 0 -298.5 -146t-117.5 -372zM207 504q0 196 87 321t224 125q135 0 224.5 -119.5t93.5 -308.5v-22q0 -201 -88.5 -327t-229.5 -126q-139 0 -225 126.5t-86 330.5z" />
<glyph unicode="r" horiz-adv-x="692" d="M174 940q2 -10 2 -37v-815v-18q-1 -8 -1 -15q0 -55 34 -55h31q33 0 33 54q0 7 -1 16q0 3 -1 9t-1 9v520q0 1 6 25q27 59 80 151q51 83 99 121.5t102 38.5q40 0 64 -16q23 -15 50.5 -12.5t28.5 28.5q0 46 -20 54q-58 27 -119 26q-68 0 -119 -31q-48 -29 -83.5 -81 t-82.5 -160q-2 -3 -6 -4v250q0 24 -41 23q-10 0 -22 -1q-24 -2 -32 -26q-4 -13 -4 -27q0 -13 3 -27z" />
<glyph unicode="s" horiz-adv-x="866" d="M106 764q0 -91 57 -153.5t189 -116.5q125 -54 146 -64q84 -39 120.5 -85.5t36.5 -111.5q0 -86 -60 -137t-161 -51q-173 0 -258 113q-12 17 -30.5 9.5t-18.5 -28.5v-43q0 -56 88 -76l64 -22q80 -25 161 -25q141 0 229.5 76t88.5 197q0 106 -71.5 179t-235.5 136 q-148 57 -196 98.5t-48 112.5q0 83 59 130.5t162 47.5q125 0 201 -73q15 -16 37 -10.5t22 26.5v20q0 20 -16.5 35.5t-31.5 22t-44 16.5q-107 37 -184 37q-130 0 -218 -75t-88 -185z" />
<glyph unicode="t" horiz-adv-x="686" d="M66 932h118q13 0 13 -12v-654q0 -160 46 -226.5t156 -66.5q84 0 160 50q43 32 43 96q0 13 -14 14t-21 -10q-66 -76 -151 -76q-78 0 -101.5 42t-23.5 183v648q0 4 3.5 8t8.5 4h293q12 32 12 48.5t-12 16.5h-293q-4 0 -8 4t-4 9v131q0 9 -8 9q-3 0 -7 -1q-79 -31 -79 -137 v-2q0 -13 -13 -13h-118q-10 -32 -10 -48.5t10 -16.5z" />
<glyph unicode="u" horiz-adv-x="1040" d="M162 942q2 -10 2 -37v-608q0 -134 45 -209q31 -54 90 -84.5t133 -30.5q118 0 205.5 72t126.5 197q0 5 4 6v-29q3 -92 9.5 -131.5t27.5 -87.5q3 -5 8 -8q33 -20 51 16q12 25 13 55q0 13 -3 27q-12 68 -12 303v604q0 25 -40 25q-10 0 -23 -2q-24 -3 -32 -26t-3 -52 q4 -10 4 -37v-334q0 -237 -89 -380.5t-237 -143.5q-103 0 -143.5 62.5t-40.5 222.5v665q0 24 -43 24q-10 0 -22 -1q-23 -2 -31 -26q-4 -12 -3 -26q0 -12 3 -26z" />
<glyph unicode="v" horiz-adv-x="892" d="M58 972q8 22 32 21h23q42 0 55 -71q1 -4 10 -31l256 -793q2 -5 9.5 -9t13.5 -1q40 21 80 80q179 245 217 412q18 80 18 142q0 41 -8 75q-12 46 -49 98.5t-78 81.5q-12 12 -12 20v15q-1 12 13 18q6 2 11 3q8 0 15 -5q62 -31 110.5 -90t65.5 -125q10 -43 10 -93 q0 -69 -19 -151q-38 -180 -225 -440q-103 -141 -192 -141q-40 0 -54 35l-282 868q-6 20 -17 39q-6 11 -6 23q-1 10 3 19z" />
<glyph unicode="w" horiz-adv-x="1286" d="M129 928q-2 10 -2 20q0 16 6 30q10 23 33 23h18q24 0 37 -21.5t15 -51.5q0 -13 2 -19l139 -800q2 -9 10 -13t16 2q37 30 64 66q114 160 172 414q20 90 20 154q0 41 -8 71q1 0 9 3t18 6t20.5 5t18 1t8.5 -7l158 -702q2 -9 10 -13t16 2q37 30 64 66q157 220 201 414 q16 82 16 141q0 42 -8 74q-10 46 -47 99t-78 83q-13 10 -13 18v15q0 12 14 18q6 3 12 3q7 0 13 -3q62 -33 110.5 -92t63.5 -123q11 -43 11 -96q0 -67 -17 -150q-47 -212 -211 -440q-49 -68 -94 -104.5t-96 -36.5q-27 0 -35 47l-113 465q-59 -223 -165 -371 q-103 -141 -195 -141q-29 0 -37 47l-172 878q-1 3 -2 10t-2 9z" />
<glyph unicode="x" d="M110 20q3 -20 23 -20h47q9 0 16 4t12.5 12.5t8.5 14.5t7.5 19t6.5 18t17 30l252 369l252 -379q13 -19 16 -29q20 -44 33 -53q8 -6 18 -6h53q21 0 28 21q2 7 2 14q0 13 -9 24q-2 3 -9 13t-12 16l-290 430l239 354l35 52q3 3 10.5 12t10.5 14q12 12 7 29.5t-22 17.5h-43 q-13 0 -23.5 -11.5t-14 -22.5t-9.5 -31q0 -1 -3.5 -6t-4.5 -8l-232 -343l-231 343l-12 18q-4 6 -12.5 25t-17 27.5t-21.5 8.5h-60q-19 0 -23 -19.5t9 -33.5q16 -16 22 -26l267 -390l-281 -411q-33 -46 -51 -64q-12 -11 -12 -26q0 -3 1 -7z" />
<glyph unicode="y" horiz-adv-x="892" d="M72 976q-2 -7 -2 -13q0 -15 8 -29q8 -16 18 -49l328 -867q10 -22 10 -45t-10 -45l-16 -49q-40 -106 -77 -147t-93 -41q-64 0 -109 57q-6 9 -20.5 5.5t-14.5 -13.5q0 -37 17.5 -68t48.5 -43q35 -12 73 -12q89 0 147 61.5t109 210.5l353 996l18 47q3 10 3 20q0 13 -5 24 q-9 21 -31 21h-8q-43 0 -47 -73q0 -21 -6 -39l-264 -735q-3 -9 -12.5 -9t-12.5 9l-276 735q-2 7 -6 18t-5 15t-4.5 17.5t-5.5 19t-6.5 16t-9 14.5t-11.5 8t-16 4h-39q-22 0 -26 -21z" />
<glyph unicode="z" horiz-adv-x="831" d="M66 0h696q22 0 22 37v10q-1 26 -30.5 33.5t-55.5 -4.5q-20 -10 -61 -10h-438q-3 0 -5 3t1 7l557 872q16 49 0 49h-650q-25 0 -22 -47q1 -23 26 -29t48 5q15 6 43 6h421q3 0 5.5 -3.5t-0.5 -6.5l-557 -877q-8 -22 -8 -33.5t8 -11.5z" />
<glyph unicode="{" horiz-adv-x="555" d="M190 647q-20 37 0 70q1 1 7.5 11t9 14t8.5 14.5t9 18t8.5 19.5t8 23t5.5 24.5t4.5 28.5t1.5 31v387q0 250 106 285q14 4 18.5 -13t-3.5 -32q-25 -57 -25 -240v-383q0 -101 -36 -151.5t-85 -65.5q-3 -2 -3 -5t3 -5q49 -13 85 -64t36 -153v-383q0 -180 25 -240 q8 -15 3.5 -32t-18.5 -11q-106 30 -106 283v387q0 45 -13.5 86.5t-22 55.5t-26.5 40z" />
<glyph unicode="|" horiz-adv-x="1024" d="M467 -498q0 -19 40 -40q42 -22 51 -8q1 2 1 5v2050q0 21 -40 43t-50 8q-2 -2 -2 -6v-2052z" />
<glyph unicode="}" horiz-adv-x="555" d="M193.5 -194q-3.5 17 3.5 32q24 57 24 240v383q0 179 121 217q3 2 3 5t-3 5q-49 15 -85 65.5t-36 151.5v383q0 183 -24 240q-7 15 -3.5 32t17.5 13q106 -35 106 -285v-387q0 -16 1.5 -31t4.5 -28.5t5.5 -24.5t8 -23t8.5 -19.5t9 -18t8.5 -14.5t9 -14t7.5 -11q20 -34 0 -68 q-1 -1 -7.5 -11t-9 -14t-8.5 -14.5t-9 -18t-8.5 -19.5t-8 -23t-5.5 -24.5t-4.5 -28.5t-1.5 -31v-387q0 -253 -106 -283q-14 -6 -17.5 11z" />
<glyph unicode="~" horiz-adv-x="1366" d="M193 1253q-4 -9 11 -18.5t32 -14.5l18 -6q50 88 96.5 126t104.5 38q60 0 159 -51q134 -67 184.5 -85.5t98.5 -18.5q84 0 150.5 50.5t123.5 158.5q5 10 -10 19t-33 13l-18 4q-53 -88 -97.5 -122.5t-105.5 -34.5q-39 0 -80 14t-131 59q-156 80 -235 80q-83 0 -145.5 -49 t-122.5 -162z" />
<glyph unicode="&#xa1;" horiz-adv-x="837" d="M277 -324q6 -25 30 -28q64 -8 66 22l86 994q0 6 -5.5 9t-11.5 1q-29 -6 -49.5 -28.5t-23.5 -53.5l-82 -830q0 -21 -6 -36q-10 -25 -4 -50zM367 946q-3 -34 18 -57t55 -23t58.5 23t27.5 57t-17 56t-54 22t-59.5 -22.5t-28.5 -55.5z" />
<glyph unicode="&#xa2;" horiz-adv-x="1183" d="M240 911q0 198 101 329.5t265 150.5v2q0 57 33 96q25 30 38 11q7 -9 7 -32v-75q62 -6 117 -33q73 -33 73 -80v-35q0 -9 -6 -12.5t-13.5 -1.5t-12.5 8q-57 60 -158 70q0 -58 -33 -97q-25 -30 -38 -12q-7 10 -7 33v74q-116 -22 -189 -131.5t-73 -268.5q0 -158 73 -265 t189 -122v74q0 42 20 39q21 -2 41 -40q17 -36 17 -73q59 9 115 38.5t92 72.5q3 6 11.5 1t8.5 -11q0 -48 -31.5 -86t-80.5 -62q-48 -25 -115 -35v-78q0 -42 -20 -39q-21 3 -41 43q-17 35 -17 72q-162 14 -264 146t-102 329z" />
<glyph unicode="&#xa3;" horiz-adv-x="911" d="M140 909q1 22 36 40q23 11 49 12q9 1 13.5 9.5t1.5 16.5q-31 77 -31 133q0 119 81.5 196t203.5 77q83 0 157 -35q74 -32 74 -80v-29q0 -12 -12 -13.5t-21 7.5q-68 74 -186 74q-85 0 -142 -51t-57 -129q0 -39 6 -67.5t29 -86.5q6 -18 31 -18h248q42 0 39 -20 q-3 -21 -43 -41q-35 -17 -72 -17h-144q-6 -3 -8.5 -12.5t0.5 -16.5q35 -92 35 -164q0 -99 -63 -159q-3 -5 -1.5 -11t7.5 -6h321q42 0 56 4q12 3 22 -4t10 -20q0 -20 -14.5 -34.5t-34.5 -14.5h-504q-14 0 -24 9.5t-10 22.5q0 32 24 41q115 46 115 166q0 64 -39 170 q-6 23 -29 29h-84q-40 0 -40 22z" />
<glyph unicode="&#xa4;" horiz-adv-x="1177" />
<glyph unicode="&#xa5;" horiz-adv-x="1103" d="M213 1350q10 16 25 16h55q4 0 8 -1t6.5 -3t5.5 -5t4.5 -5t4 -6.5t3.5 -6.5t3 -6.5t2 -5.5q0 -2 1 -4.5t1 -3.5q1 -1 2 -4t2.5 -6t3.5 -6l145 -295q33 -80 64 -170h18q20 64 62 153l143 316q20 59 45 59h29q18 0 24 -16q9 -15 -2 -37q-11 -14 -24 -43l-135 -289 q-31 -61 -58 -143h140q42 0 39 -21q-3 -22 -44 -42q-34 -17 -71 -17h-86q-12 -46 -21 -96h133q42 0 39 -20q-2 -21 -42 -41q-34 -17 -72 -17h-68q-4 -39 -4 -113q3 -30 -16 -53q-15 -12 -33 -12q-25 0 -38 19t-13 46q0 48 -7 113h-137q-42 0 -39 20q3 21 43 41q35 17 72 17 h53q-9 50 -18 96h-111q-42 0 -39 21q3 22 44 42q34 17 71 17h14q-29 91 -61 157l-148 301q-1 1 -5.5 7.5t-6.5 11.5q-14 14 -6 35z" />
<glyph unicode="&#xa7;" horiz-adv-x="1177" d="M115 569q0 -119 91 -205.5t286 -152.5l172 -59q110 -38 161.5 -89t51.5 -122q0 -109 -86.5 -179.5t-221.5 -70.5q-65 0 -137 20q-103 37 -162 121q-6 9 -22.5 2.5t-16.5 -18.5q0 -41 19 -77t53 -56q123 -70 264 -70q179 0 295.5 93t116.5 235q0 176 -199 264q-8 3 -11 9 q0 2 1 3q135 10 214 87t79 196t-84 194q-51 40 -74 51q-91 51 -311 127q-158 54 -211 99t-53 123q0 94 73 155.5t183 61.5q163 0 254 -113q12 -14 29.5 -9t17.5 23v58q0 5 -1.5 9.5t-3 8t-5 7l-6 6t-8 6t-8.5 5t-9.5 4.5t-9 4t-10 3.5t-9.5 3.5l-12.5 5t-18 8t-16.5 8 q-74 36 -182 36q-154 0 -258.5 -87.5t-104.5 -215.5q0 -67 40.5 -125t111.5 -92q4 -3 -1 -7.5t-11 -6.5q-116 -25 -183 -100t-67 -181zM209 586q0 85 60.5 141.5t174.5 79.5q27 6 54 -4q51 -21 151 -60q175 -64 230 -96q42 -26 66 -66.5t24 -84.5q0 -98 -78 -162.5 t-209 -75.5q-17 -3 -39 8l-8 2q-181 69 -232 90q-194 84 -194 228z" />
<glyph unicode="&#xa8;" horiz-adv-x="1024" d="M279 1225q0 32 22.5 55t54.5 23t55 -23t23 -55q0 -34 -23 -57t-55 -23t-54.5 23t-22.5 57zM592 1223q0 32 23 54.5t55 22.5q31 0 53 -22.5t22 -54.5t-22 -55t-53 -23q-32 0 -55 23t-23 55z" />
<glyph unicode="&#xa9;" horiz-adv-x="1611" d="M96 682q0 -144 56.5 -275.5t151.5 -226.5t226.5 -151t276.5 -56q115 0 222.5 36t194.5 101.5t152.5 152.5t101 195.5t35.5 223.5q0 145 -56 276.5t-150 226.5t-225 151.5t-275 56.5q-145 0 -276.5 -56.5t-226.5 -151.5t-151.5 -226.5t-56.5 -276.5zM162 682 q0 177 86.5 327t235 237t323.5 87q174 0 322 -87t234.5 -237t86.5 -327q0 -176 -86.5 -326t-235 -237.5t-323.5 -87.5q-174 0 -322 87.5t-234.5 237.5t-86.5 326zM475 684q0 174 101.5 293t244.5 119q49 0 117 -29l8 -4q64 -28 64 -66v-20q0 -21 -19 -27q-18 -7 -33 8 q-59 70 -147 70q-101 0 -174.5 -99t-73.5 -245q0 -145 75 -238.5t185 -93.5q54 0 101 27.5t75 73.5l11 6h2q12 -3 12 -17v-34q0 -46 -35 -70q-74 -53 -172 -53q-144 0 -243 113.5t-99 285.5z" />
<glyph unicode="&#xaa;" horiz-adv-x="796" d="M154 608v68h491v-68h-491zM168 956q0 66 47.5 106t157.5 66q105 26 147 54q0 70 -28.5 102.5t-90.5 32.5q-114 0 -182 -113v113q83 57 187 57q110 0 147 -50.5t37 -201.5v-53v-47v-82q0 -71 26 -121h-71q-17 28 -17 92q-22 -54 -69 -84t-109 -30q-77 0 -129.5 46 t-52.5 113zM240 956q0 -43 33.5 -72.5t82.5 -29.5q75 0 119.5 65.5t44.5 174.5v30q-68 -33 -129 -49q-87 -22 -119 -47.5t-32 -71.5z" />
<glyph unicode="&#xab;" horiz-adv-x="935" d="M193 412l200 -365q8 -2 20.5 -5t38.5 -7.5t41 -1.5t9 14l-226 428q-10 23 0 45l236 428q11 21 -50 13l-69 -13l-200 -362q-43 -89 0 -174zM449 498q0 -46 20 -86l205 -406q8 -2 21 -5t40 -7.5t42 -1.5t9 14l-233 469q-10 23 0 45l233 469q9 21 -44 14q-31 -4 -68 -14 l-205 -405q-20 -40 -20 -86z" />
<glyph unicode="&#xac;" horiz-adv-x="1024" d="M55 525.5q0 -21.5 7 -43.5l6 -21h772q10 0 17 -7t7 -18v-436q6 -2 15.5 -4.5t29.5 -7t33.5 -2t13.5 13.5v451q0 40 -28 68t-68 28h-792q-13 0 -13 -21.5z" />
<glyph unicode="&#xad;" horiz-adv-x="612" d="M99.5 541.5q2.5 -11.5 11.5 -11.5h424q2 5 4 13.5t6 26t1.5 29t-11.5 11.5h-424q-2 -5 -4 -13.5t-6 -26t-1.5 -29z" />
<glyph unicode="&#xae;" horiz-adv-x="960" d="M68 1141q0 169 120.5 288t292.5 119q170 0 291 -119t121 -288q0 -171 -120.5 -290.5t-291.5 -119.5q-172 0 -292.5 119.5t-120.5 290.5zM125 1141q0 -148 103 -253.5t249 -105.5t249 105.5t103 253.5q0 145 -103 249.5t-249 104.5t-249 -104.5t-103 -249.5zM328 938 q2 4 2 12v381v4q-3 14 8 25q6 6 16 6h99q75 0 114 -23q60 -37 60 -106q0 -31 -14.5 -59t-37.5 -43q-29 -16 -63 -21l106 -153q14 -18 21 -23q8 -8 12 -10q17 -8 23 -10q-34 -24 -72 -9q-21 11 -31 23l-98 149q-19 29 -55 29h-35v-160q0 -3 1 -6.5t1 -5.5q0 -11 -6 -20 q-7 -7 -17 -7h-12q-10 0 -16 9q-6 6 -6 18zM383 1155h70q62 0 84 14q14 9 23 28.5t9 39.5q0 46 -30 66q-29 20 -86 20h-70v-168z" />
<glyph unicode="&#xaf;" horiz-adv-x="1024" d="M260.5 1195.5q2.5 -11.5 11.5 -11.5h480q2 5 4 13.5t6 26t1.5 29t-11.5 11.5h-480q-2 -5 -4 -13.5t-6 -26t-1.5 -29z" />
<glyph unicode="&#xb0;" horiz-adv-x="815" d="M135 1120q0 113 79.5 193t193.5 80q112 0 192 -80t80 -193q0 -114 -79 -194t-193 -80t-193.5 80t-79.5 194zM203 1120q0 -86 60 -145.5t145 -59.5t144.5 59.5t59.5 145.5q0 85 -59.5 145t-144.5 60t-145 -60t-60 -145z" />
<glyph unicode="&#xb1;" horiz-adv-x="681" d="M67 696q0 20 7 40l6 20h205v207q0 12 20 12t40 -6l20 -6v-207h206q12 0 12 -20t-6 -40l-6 -20h-206v-205q0 -13 -20 -13t-40 6l-20 7v205h-205q-13 0 -13 20zM101.5 220.5q2.5 -11.5 11.5 -11.5h424q2 5 4 13.5t6 26t1.5 29t-11.5 11.5h-424q-2 -5 -4 -13.5t-6 -26 t-1.5 -29z" />
<glyph unicode="&#xb4;" horiz-adv-x="1024" d="M329.5 1168.5q3.5 -11.5 12.5 -23.5l10 -12l400 86q10 3 11.5 13t-3.5 22.5t-11.5 24.5t-12.5 20l-5 8l-395 -121q-10 -6 -6.5 -17.5z" />
<glyph unicode="&#xb5;" horiz-adv-x="937" d="M119 940q-7 30 1 53.5t32 26.5q63 8 63 -23v-594q0 -356 184 -356q148 0 237 143.5t89 380.5v334q0 25 -2 35q-7 30 1 53.5t32 26.5q63 7 63 -23v-604q0 -221 15 -303q7 -46 -11 -82.5t-51 -17.5q-7 3 -10 10q-21 48 -27.5 87.5t-9.5 131.5v27q-1 2 -4 -4 q-39 -125 -126.5 -197t-205.5 -72q-120 0 -174 95v-406q-4 -15 -27.5 -15t-45.5 7l-21 8v1243q0 25 -2 35z" />
<glyph unicode="&#xb6;" horiz-adv-x="1177" d="M150 987q0 -195 100 -285q30 -30 67.5 -41.5t106.5 -13.5q18 0 18 -24v-899v-23q-2 -27 11 -48.5t36 -21.5h293q24 0 36.5 21t12.5 49q-2 6 -2 23v1556q0 12 2 18q2 26 -11.5 47t-37.5 21h-213q-128 0 -191 -16.5t-120 -63.5q-108 -92 -108 -299zM535 -301v1573 q0 9 7 16.5t17 7.5h156q10 0 17 -7.5t7 -16.5v-1551q0 -9 -7 -15.5t-17 -6.5h-180z" />
<glyph unicode="&#xb7;" horiz-adv-x="178" d="M0 690q0 -37 25.5 -62.5t62.5 -25.5t63.5 25.5t26.5 62.5q0 36 -27 63t-63 27t-62 -27t-26 -63z" />
<glyph unicode="&#xb8;" horiz-adv-x="1024" d="M490 -300q9 -21 39 -41q17 -11 28 -11q100 0 156.5 39t56.5 108q0 57 -44 92t-112 35q-4 0 -8 -0.5t-9.5 -1.5t-10.5 -2q-4 5 -0.5 20t8.5 31q2 6 7.5 11.5t10.5 9t10 6.5l5 4q-111 -2 -111 0q7 -1 11 -9t1 -16q-33 -78 -28 -106q1 -9 10 -6l10 4q30 6 49 6 q53 0 85 -21.5t32 -56.5q0 -38 -41 -64t-102 -26q-27 0 -45 4q-12 2 -8 -9z" />
<glyph unicode="&#xba;" horiz-adv-x="796" d="M154 608v68h491v-68h-491zM154 1087q0 122 70.5 204.5t174.5 82.5q103 0 173.5 -83t70.5 -204q0 -123 -70.5 -206.5t-173.5 -83.5q-104 0 -174.5 83.5t-70.5 206.5zM225 1085q0 -95 51 -163t123 -68t123 68t51 163q0 97 -51 164.5t-123 67.5t-123 -67.5t-51 -164.5z" />
<glyph unicode="&#xbb;" horiz-adv-x="935" d="M150 6q-9 -21 44 -14q31 4 68 14l205 406q20 40 20 86t-20 86l-205 405q-8 2 -21 5t-40 7.5t-42 1.5t-9 -14l233 -469q10 -22 0 -45zM424 948l235 -428q10 -22 0 -45l-225 -428q-10 -20 44 -13l65 13l200 365q20 40 20 86t-20 86l-200 364l-22.5 5t-42.5 8t-44.5 2 t-9.5 -15z" />
<glyph unicode="&#xbf;" horiz-adv-x="1024" d="M147 -37q0 178 148 320q7 8 33 32t43 41q79 76 114.5 125.5t44.5 100.5q5 31 25 57t47 33q18 0 21 -13q4 -24 4 -30q0 -103 -32.5 -166t-137.5 -164q-132 -129 -169.5 -190.5t-37.5 -147.5q0 -119 79.5 -197.5t202.5 -78.5q87 0 157 33t112 92q11 15 29 9.5t18 -24.5v-41 q0 -24 -17 -45t-34 -31.5t-47 -25.5q-115 -49 -211 -49q-168 0 -280 103t-112 257zM498 944q0 32 24 56t58 24q33 0 56 -23.5t23 -56.5q0 -34 -23 -58t-56 -24q-34 0 -58 24t-24 58z" />
<glyph unicode="&#xc0;" horiz-adv-x="1212" d="M30 16q7 -16 25 -16h51q33 0 33 61q0 11 13 48l143 378q4 19 24 19h537q17 0 25 -19l145 -378q16 -47 16 -58q0 -51 23 -51h90q17 0 22.5 16t-3.5 31q-6 9 -9 21l-14 41l-457 1177q-14 35 -46 57.5t-70 22.5h-21q-19 0 -30 -16.5t-11 -38.5t-12 -49l-438 -1137 q-22 -58 -33 -78q-10 -15 -3 -31zM334 604l241 625q3 5 8 5t7 -5l246 -625q3 -6 -1 -11t-10 -5h-481q-6 0 -9.5 5t-0.5 11zM354 1614l2 -23l404 -90q10 -2 13 11.5t1 27.5l-2 14l-391 123q-16 4 -22 -17.5t-5 -45.5z" />
<glyph unicode="&#xc1;" horiz-adv-x="1212" d="M30 16q7 -16 25 -16h51q33 0 33 61q0 11 13 48l143 378q4 19 24 19h537q17 0 25 -19l145 -378q16 -47 16 -58q0 -51 23 -51h90q17 0 22.5 16t-3.5 31q-6 9 -9 21l-14 41l-457 1177q-14 35 -46 57.5t-70 22.5h-21q-19 0 -30 -16.5t-11 -38.5t-12 -49l-438 -1137 q-22 -58 -33 -78q-10 -15 -3 -31zM334 604l241 625q3 5 8 5t7 -5l246 -625q3 -6 -1 -11t-10 -5h-481q-6 0 -9.5 5t-0.5 11zM430 1536.5q4 -11.5 14 -23.5l9 -12l399 86q10 3 11.5 13t-3.5 22.5t-11.5 24.5t-12.5 20l-5 8l-395 -121q-10 -6 -6 -17.5z" />
<glyph unicode="&#xc2;" horiz-adv-x="1212" d="M30 16q7 -16 25 -16h51q33 0 33 61q0 11 13 48l143 378q4 19 24 19h537q17 0 25 -19l145 -378q16 -47 16 -58q0 -51 23 -51h90q17 0 22.5 16t-3.5 31q-6 9 -9 21l-14 41l-457 1177q-14 35 -46 57.5t-70 22.5h-21q-19 0 -30 -16.5t-11 -38.5t-12 -49l-438 -1137 q-22 -58 -33 -78q-10 -15 -3 -31zM293 1542.5q-3 -14.5 10 -20.5q15 -9 37 -2l242 82q22 6 45 0l237 -82q34 -10 56 12q5 7 1 14.5t-12 12.5l-266 129q-33 16 -65 0l-269 -125q-13 -6 -16 -20.5zM334 604l241 625q3 5 8 5t7 -5l246 -625q3 -6 -1 -11t-10 -5h-481 q-6 0 -9.5 5t-0.5 11z" />
<glyph unicode="&#xc3;" horiz-adv-x="1212" d="M30 16q7 -16 25 -16h51q33 0 33 61q0 11 13 48l143 378q4 19 24 19h537q17 0 25 -19l145 -378q16 -47 16 -58q0 -51 23 -51h90q17 0 22.5 16t-3.5 31q-6 9 -9 21l-14 41l-457 1177q-14 35 -46 57.5t-70 22.5h-21q-19 0 -30 -16.5t-11 -38.5t-12 -49l-438 -1137 q-22 -58 -33 -78q-10 -15 -3 -31zM301 1556q-5 -9 5.5 -17.5t23.5 -12.5l14 -4q34 43 59.5 59t61.5 16q27 0 50.5 -9t86.5 -42q76 -43 127 -43t100 37.5t80 99.5q4 10 -7.5 19t-25.5 13l-14 3q-29 -46 -54.5 -64t-59.5 -18q-56 0 -138 47q-51 28 -76 37t-51 9 q-107 0 -182 -130zM334 604l241 625q3 5 8 5t7 -5l246 -625q3 -6 -1 -11t-10 -5h-481q-6 0 -9.5 5t-0.5 11z" />
<glyph unicode="&#xc4;" horiz-adv-x="1212" d="M30 16q-7 16 3 31q11 20 33 78l438 1137q12 27 12 49t11 38.5t30 16.5h21q38 0 70 -22.5t46 -57.5l457 -1177l14 -41q3 -12 9 -21q9 -15 3.5 -31t-22.5 -16h-90q-23 0 -23 51q0 11 -16 58l-145 378q-8 19 -25 19h-537q-20 0 -24 -19l-143 -378q-13 -37 -13 -48 q0 -61 -33 -61h-51q-18 0 -25 16zM334 604q-3 -6 0.5 -11t9.5 -5h481q6 0 10 5t1 11l-246 625q-2 5 -7 5t-8 -5zM358 1583q0 34 24 58t58 24q32 0 56 -24t24 -58q0 -32 -24 -56t-56 -24q-34 0 -58 24t-24 56zM694 1583q0 33 23.5 56.5t56.5 23.5q34 0 57 -23t23 -57t-23 -57 t-57 -23q-32 0 -56 24t-24 56z" />
<glyph unicode="&#xc5;" horiz-adv-x="1212" d="M30.5 16q-6.5 16 2.5 33q13 25 30 76l441 1137q10 23 10 49q0 4 4 20q-43 24 -69.5 67t-26.5 93q0 76 54.5 130t129.5 54q77 0 131 -54t54 -130q0 -56 -32.5 -102.5t-84.5 -67.5q11 -14 18 -35l459 -1177l14 -41q3 -12 9 -21q9 -15 3.5 -31t-22.5 -16h-90q-23 0 -23 51 q0 5 -18 58l-143 378q-8 19 -25 19h-539q-16 0 -24 -19l-143 -378q-11 -42 -11 -48q0 -61 -33 -61h-51q-18 0 -24.5 16zM334 604q-3 -6 0.5 -11t9.5 -5h481q6 0 10 5t1 11l-246 627q-2 4 -7.5 3.5t-7.5 -3.5zM485 1491q0 -49 35.5 -84t85.5 -35q51 0 86 34.5t35 84.5 q0 51 -35 86t-86 35q-50 0 -85.5 -35t-35.5 -86z" />
<glyph unicode="&#xc6;" horiz-adv-x="1839" d="M61 19q-6 19 9 32q28 28 41 53l759 1174q5 7 21 35.5t29 40.5t32 12h768q30 0 23 -61q-5 -41 -84 -23q-5 2 -37 2h-518q-9 0 -17 -7.5t-8 -16.5v-494q0 -9 8 -16t17 -7h479h19q65 4 65 -36q0 -23 -21 -34t-49 -11q-6 2 -20 2h-473q-9 0 -17 -8t-8 -17v-537q0 -9 8 -15.5 t17 -6.5h516q39 0 66 10q23 11 49.5 6.5t29.5 -28.5q8 -66 -22 -66l-717 -2q-29 0 -45 26t-16 60v389q0 9 -7 17t-16 8h-453q-22 0 -36 -21l-248 -375q-1 -3 -2.5 -6l-3 -6t-2.5 -4q-3 -5 -11.5 -23t-13 -25.5t-13 -19t-18.5 -16t-22 -4.5h-33q-19 0 -25 19zM523.5 586 q3.5 -6 11.5 -6h405q9 0 16 6.5t7 15.5v651q0 5 -5 6.5t-8 -2.5l-426 -657q-4 -8 -0.5 -14z" />
<glyph unicode="&#xc7;" horiz-adv-x="1179" d="M102 678q0 -182 60.5 -332.5t169.5 -245.5t248 -118q11 -2 16.5 -10t1.5 -15q-37 -104 -17 -111q3 -1 7 0l10 2q38 9 59 9q57 0 93 -25t36 -63q0 -43 -46 -73t-113 -30q-30 0 -66 8q-13 3 -10 -8q5 -20 38 -46q21 -16 36 -17h18q112 0 175 44.5t63 121.5q0 63 -49 102 t-127 39q-17 0 -29 -2q-9 3 -7.5 14.5t9.5 30.5q9 20 35 20q149 12 280 99q9 8 19 12q7 4 23 12.5t24.5 13.5t16 15t7.5 22v60q0 21 -18.5 29t-32.5 -9q-64 -76 -155 -122t-183 -46q-205 0 -337 173t-132 440q0 180 63 325t174.5 226.5t250.5 81.5q110 0 196 -58 q25 -17 56 -18.5t53.5 15t23.5 46.5q6 98 -7 88q-3 -2 -7 -12q-19 -45 -47 -45q-10 0 -37 12q-123 60 -237 60q-175 0 -313 -90t-215 -253.5t-77 -371.5z" />
<glyph unicode="&#xc8;" horiz-adv-x="1075" d="M186 66q-2 -27 11 -47.5t36 -20.5h760q31 0 23 68q-3 23 -30 27t-52 -7q-21 -8 -64 -8h-544q-10 0 -17.5 7.5t-7.5 16.5v543q0 9 7.5 16t17.5 7h477h18q29 -3 51.5 5.5t22.5 31.5v12q0 39 -68 35q-2 0 -6.5 -1t-7.5 -1h-487q-10 0 -17.5 7.5t-7.5 16.5v486q0 9 7.5 16.5 t17.5 7.5h536q17 0 37 -4q24 -10 51.5 -6t30.5 26q7 64 -20 64h-728q-23 0 -36 -19.5t-11 -46.5v-20v-1194v-18zM287.5 1623.5q-0.5 -13.5 0.5 -23.5l1 -9l403 -90q10 -2 13.5 11.5t1.5 27.5l-2 14l-392 123q-10 2 -16 -6t-7.5 -21t-2 -26.5z" />
<glyph unicode="&#xc9;" horiz-adv-x="1075" d="M186 66q-2 -27 11 -47.5t36 -20.5h760q31 0 23 68q-3 23 -30 27t-52 -7q-21 -8 -64 -8h-544q-10 0 -17.5 7.5t-7.5 16.5v543q0 9 7.5 16t17.5 7h477h18q29 -3 51.5 5.5t22.5 31.5v12q0 39 -68 35q-2 0 -6.5 -1t-7.5 -1h-487q-10 0 -17.5 7.5t-7.5 16.5v486q0 9 7.5 16.5 t17.5 7.5h536q17 0 37 -4q24 -10 51.5 -6t30.5 26q7 64 -20 64h-728q-23 0 -36 -19.5t-11 -46.5v-20v-1194v-18zM360.5 1536.5q3.5 -11.5 13.5 -23.5l9 -12l399 86q10 3 11.5 13t-3.5 22.5t-11 24.5t-11 20l-6 8l-395 -121q-10 -6 -6.5 -17.5z" />
<glyph unicode="&#xca;" horiz-adv-x="1075" d="M186 66q-2 -27 11 -47.5t36 -20.5h760q31 0 23 68q-3 23 -30 27t-52 -7q-21 -8 -64 -8h-544q-10 0 -17.5 7.5t-7.5 16.5v543q0 9 7.5 16t17.5 7h477h18q29 -3 51.5 5.5t22.5 31.5v12q0 39 -68 35q-2 0 -6.5 -1t-7.5 -1h-487q-10 0 -17.5 7.5t-7.5 16.5v486q0 9 7.5 16.5 t17.5 7.5h536q17 0 37 -4q24 -10 51.5 -6t30.5 26q7 64 -20 64h-728q-23 0 -36 -19.5t-11 -46.5v-20v-1194v-18zM226 1542.5q-3 -14.5 10 -20.5q15 -9 36 -2l242 82q22 6 45 0l238 -82q33 -10 55 12q5 6 1.5 14t-11.5 13l-267 129q-33 16 -65 0l-268 -125q-13 -6 -16 -20.5z " />
<glyph unicode="&#xcb;" horiz-adv-x="1075" d="M186 66v18v1194v20q-2 27 11 46.5t36 19.5h728q27 0 20 -64q-3 -22 -30.5 -26t-51.5 6q-20 4 -37 4h-536q-10 0 -17.5 -7.5t-7.5 -16.5v-486q0 -9 7.5 -16.5t17.5 -7.5h487q3 0 7.5 1t6.5 1q68 4 68 -35v-12q0 -23 -22.5 -31.5t-51.5 -5.5h-18h-477q-10 0 -17.5 -7 t-7.5 -16v-543q0 -9 7.5 -16.5t17.5 -7.5h544q43 0 64 8q25 11 52 7t30 -27q8 -68 -23 -68h-760q-23 0 -36 20.5t-11 47.5zM289 1583q0 34 24 58t58 24q32 0 56 -24t24 -58q0 -32 -24 -56t-56 -24q-34 0 -58 24t-24 56zM625 1583q0 33 23.5 56.5t56.5 23.5q34 0 56.5 -23 t22.5 -57t-22.5 -57t-56.5 -23q-32 0 -56 24t-24 56z" />
<glyph unicode="&#xcc;" horiz-adv-x="487" d="M63 1602l334 -101q10 -2 13.5 11.5t1.5 27.5l-2 14l-308 142q-16 4 -25.5 -19.5t-11.5 -48.5zM184 55q-3 -21 8 -38t29 -17h45q20 0 30 16t7 37q0 4 -1 17.5t-1 21.5v1182q0 9 1 22t1 17q3 21 -7 37t-30 16h-45q-18 0 -29 -16t-8 -37q2 -10 2 -39v-1182q0 -27 -2 -37z " />
<glyph unicode="&#xcd;" horiz-adv-x="487" d="M67.5 1536.5q3.5 -11.5 12.5 -23.5l10 -12l332 101q14 8 6 29t-26 43l-17 22l-311 -142q-10 -6 -6.5 -17.5zM184 55q-3 -21 8 -38t29 -17h45q20 0 30 16t7 37q0 4 -1 17.5t-1 21.5v1182q0 9 1 22t1 17q3 21 -7 37t-30 16h-45q-18 0 -29 -16t-8 -37q2 -10 2 -39v-1182 q0 -27 -2 -37z" />
<glyph unicode="&#xce;" horiz-adv-x="485" d="M15.5 1544.5q-3.5 -14.5 9.5 -20.5q17 -8 36 -2l160 82q23 6 47 0l156 -82q31 -10 53 12q5 6 1.5 14t-11.5 13l-184 129q-33 16 -66 0l-184 -125q-14 -6 -17.5 -20.5zM184 55q-3 -21 8 -38t29 -17h45q20 0 30 16t7 37q0 4 -1 17.5t-1 21.5v1182q0 9 1 22t1 17q3 21 -7 37 t-30 16h-45q-18 0 -29 -16t-8 -37q2 -10 2 -39v-1182q0 -27 -2 -37z" />
<glyph unicode="&#xcf;" horiz-adv-x="487" d="M49 1583q0 34 23 58t57 24t57 -24t23 -58q0 -33 -23.5 -56.5t-56.5 -23.5t-56.5 23.5t-23.5 56.5zM184 55q2 10 2 37v1182q0 29 -2 39q-3 21 8 37t29 16h45q20 0 30 -16t7 -37q0 -4 -1 -17t-1 -22v-1182q0 -8 1 -21.5t1 -17.5q3 -21 -7 -37t-30 -16h-45q-18 0 -29 17 t-8 38zM279 1583q0 34 22.5 57t56.5 23q33 0 56.5 -23.5t23.5 -56.5t-23.5 -56.5t-56.5 -23.5t-56 23.5t-23 56.5z" />
<glyph unicode="&#xd1;" horiz-adv-x="1419" d="M201 45q-5 -17 0.5 -31t21.5 -14h49q30 0 21 57q-4 20 -4 39v1080q0 5 5.5 6.5t8.5 -2.5l770 -1102q16 -21 22.5 -29.5t22.5 -27t26.5 -25.5t25 -14.5t27.5 -5t26 13.5q4 2 4 10v1257q0 19 4 43q4 26 -4 46t-29 20h-29q-20 0 -29 -16.5t-3 -34.5q8 -21 8 -58v-1054 q0 -6 -4.5 -8.5t-7.5 2.5l-816 1169q-14 22 -63 18q-51 -3 -47 -90v-20v-1168q0 -47 -6 -61zM406 1559q-5 -9 5.5 -17.5t24.5 -13.5l13 -4q34 43 59 59t61 16q27 0 51 -9t87 -42q76 -43 127 -43t100 37.5t80 99.5q4 10 -7.5 19t-25.5 13l-14 3q-29 -45 -55 -63.5t-60 -18.5 q-55 0 -137 47q-51 28 -76 37t-51 9q-107 0 -182 -129z" />
<glyph unicode="&#xd2;" horiz-adv-x="1490" d="M100 678q0 -193 85.5 -355.5t233.5 -256t324 -93.5q177 0 325.5 93.5t234.5 256.5t86 357q0 196 -85.5 360t-233.5 258.5t-325 94.5q-178 0 -326.5 -94.5t-233.5 -259t-85 -361.5zM221 682q0 171 69.5 314.5t189.5 226t263 82.5q144 0 264.5 -82.5t189.5 -226t69 -314.5 t-69 -314.5t-189.5 -226t-264.5 -82.5q-143 0 -263 82.5t-189.5 226t-69.5 314.5zM476 1614l1 -23l404 -90q10 -2 13 11.5t1 27.5l-2 14l-391 123q-16 4 -22 -17.5t-4 -45.5z" />
<glyph unicode="&#xd3;" horiz-adv-x="1490" d="M100 678q0 -193 85.5 -355.5t233.5 -256t324 -93.5q177 0 325.5 93.5t234.5 256.5t86 357q0 196 -85.5 360t-233.5 258.5t-325 94.5q-178 0 -326.5 -94.5t-233.5 -259t-85 -361.5zM221 682q0 171 69.5 314.5t189.5 226t263 82.5q144 0 264.5 -82.5t189.5 -226t69 -314.5 t-69 -314.5t-189.5 -226t-264.5 -82.5q-143 0 -263 82.5t-189.5 226t-69.5 314.5zM569 1536.5q4 -11.5 13 -23.5l10 -12l399 86q10 3 11.5 13t-3.5 22.5t-11 24.5t-12 20l-5 8l-396 -121q-10 -6 -6 -17.5z" />
<glyph unicode="&#xd4;" horiz-adv-x="1490" d="M100 678q0 -193 85.5 -355.5t233.5 -256t324 -93.5q177 0 325.5 93.5t234.5 256.5t86 357q0 196 -85.5 360t-233.5 258.5t-325 94.5q-178 0 -326.5 -94.5t-233.5 -259t-85 -361.5zM221 682q0 171 69.5 314.5t189.5 226t263 82.5q144 0 264.5 -82.5t189.5 -226t69 -314.5 t-69 -314.5t-189.5 -226t-264.5 -82.5q-143 0 -263 82.5t-189.5 226t-69.5 314.5zM432.5 1542.5q-3.5 -14.5 9.5 -20.5q15 -9 37 -2l242 82q23 6 45 0l238 -82q33 -10 55 12q5 6 1.5 14t-11.5 13l-267 129q-32 16 -65 0l-268 -125q-13 -6 -16.5 -20.5z" />
<glyph unicode="&#xd5;" horiz-adv-x="1490" d="M100 678q0 197 85 361.5t233.5 259t326.5 94.5q177 0 325 -94.5t233.5 -258.5t85.5 -360q0 -194 -86 -357t-234.5 -256.5t-325.5 -93.5q-176 0 -324 93.5t-233.5 256t-85.5 355.5zM221 682q0 -171 69.5 -314.5t189.5 -226t263 -82.5q144 0 264.5 82.5t189.5 226t69 314.5 t-69 314.5t-189.5 226t-264.5 82.5q-143 0 -263 -82.5t-189.5 -226t-69.5 -314.5zM432 1556q79 134 186 134q28 0 55 -9.5t77 -38.5q89 -47 141 -47q36 0 63 19t58 65l47 -37q-32 -64 -83.5 -102.5t-105.5 -38.5q-49 0 -129 45q-65 39 -88.5 48.5t-52.5 9.5q-38 0 -63 -16.5 t-62 -67.5z" />
<glyph unicode="&#xd6;" horiz-adv-x="1490" d="M100 678q0 197 85 361.5t233.5 259t326.5 94.5q177 0 325 -94.5t233.5 -258.5t85.5 -360q0 -194 -86 -357t-234.5 -256.5t-325.5 -93.5q-176 0 -324 93.5t-233.5 256t-85.5 355.5zM221 682q0 -171 69.5 -314.5t189.5 -226t263 -82.5q144 0 264.5 82.5t189.5 226t69 314.5 t-69 314.5t-189.5 226t-264.5 82.5q-143 0 -263 -82.5t-189.5 -226t-69.5 -314.5zM498 1583q0 34 24 58t56 24q34 0 57.5 -24t23.5 -58q0 -33 -23.5 -56.5t-57.5 -23.5q-32 0 -56 24t-24 56zM834 1583q0 34 22.5 57t56.5 23t57 -23t23 -57t-23 -57t-57 -23q-33 0 -56 23.5 t-23 56.5z" />
<glyph unicode="&#xd8;" horiz-adv-x="1490" d="M98 680q0 -171 77 -326.5t214 -263.5q17 -13 6 -35l-69 -133q-4 -7 8.5 -13t26.5 -9l14 -2l69 129q10 20 31 12q140 -66 273 -66q175 0 322.5 94.5t233 258.5t85.5 358q0 170 -71.5 321.5t-203.5 260.5q-16 16 -6 37l61 120q4 7 -8 14.5t-25 10.5l-14 4l-61 -119 q-5 -8 -13.5 -12t-15.5 0q-135 72 -289 72q-175 0 -323.5 -95.5t-235 -260t-86.5 -357.5zM221 676q0 168 71.5 313t193 230.5t262.5 85.5q140 0 247 -66q14 -11 2 -31l-538 -1030q-5 -8 -13 -10t-14 4q-54 54 -80.5 89t-54.5 89q-35 67 -55.5 155.5t-20.5 170.5zM504 133 q-1 10 4 17l534 1026q4 8 14.5 8t18.5 -6q83 -78 138 -218t55 -274q0 -168 -71.5 -312.5t-193 -229.5t-262.5 -85q-115 0 -229 60q-7 4 -8 14z" />
<glyph unicode="&#xd9;" horiz-adv-x="1318" d="M178 1313q2 -10 2 -39v-799q0 -137 17.5 -208t68.5 -138q114 -156 385 -156q121 0 221 30.5t160 86.5q59 56 83 137.5t24 225.5v821q0 8 1 21t1 18q3 20 -7.5 36.5t-29.5 16.5h-10q-19 0 -30.5 -16.5t-8.5 -36.5q2 -10 2 -39v-795q0 -217 -70 -307q-40 -53 -128 -83 t-202 -30q-191 0 -282 107q-46 55 -63 119t-17 190v799q0 8 1 21t1 18q3 20 -7.5 36.5t-29.5 16.5h-43q-19 0 -30.5 -16.5t-8.5 -36.5zM408.5 1623.5q-0.5 -13.5 0.5 -23.5l1 -9l403 -90q10 -2 13 11.5t1 27.5l-2 14l-391 123q-10 2 -16 -6t-7.5 -21t-2 -26.5z" />
<glyph unicode="&#xda;" horiz-adv-x="1318" d="M178 1313q2 -10 2 -39v-799q0 -137 17.5 -208t68.5 -138q114 -156 385 -156q121 0 221 30.5t160 86.5q59 56 83 137.5t24 225.5v821q0 8 1 21t1 18q3 20 -7.5 36.5t-29.5 16.5h-10q-19 0 -30.5 -16.5t-8.5 -36.5q2 -10 2 -39v-795q0 -217 -70 -307q-40 -53 -128 -83 t-202 -30q-191 0 -282 107q-46 55 -63 119t-17 190v799q0 8 1 21t1 18q3 20 -7.5 36.5t-29.5 16.5h-43q-19 0 -30.5 -16.5t-8.5 -36.5zM483 1536.5q4 -11.5 13 -23.5l10 -12l399 86q10 3 11.5 13t-3.5 22.5t-11 24.5t-12 20l-5 8l-396 -121q-10 -6 -6 -17.5z" />
<glyph unicode="&#xdb;" horiz-adv-x="1318" d="M178 1313q2 -10 2 -39v-799q0 -137 17.5 -208t68.5 -138q114 -156 385 -156q121 0 221 30.5t160 86.5q59 56 83 137.5t24 225.5v821q0 8 1 21t1 18q3 20 -7.5 36.5t-29.5 16.5h-10q-19 0 -30.5 -16.5t-8.5 -36.5q2 -10 2 -39v-795q0 -217 -70 -307q-40 -53 -128 -83 t-202 -30q-191 0 -282 107q-46 55 -63 119t-17 190v799q0 8 1 21t1 18q3 20 -7.5 36.5t-29.5 16.5h-43q-19 0 -30.5 -16.5t-8.5 -36.5zM348.5 1542.5q-3.5 -14.5 9.5 -20.5q15 -9 37 -2l242 82q23 6 45 0l238 -82q33 -10 55 12q5 6 1.5 14t-11.5 13l-267 129q-32 16 -65 0 l-268 -125q-13 -6 -16.5 -20.5z" />
<glyph unicode="&#xdc;" horiz-adv-x="1318" d="M178 1313q-3 20 8.5 36.5t30.5 16.5h43q19 0 29.5 -16.5t7.5 -36.5q0 -5 -1 -18t-1 -21v-799q0 -126 17 -190t63 -119q91 -107 282 -107q114 0 202 30t128 83q70 90 70 307v795q0 29 -2 39q-3 20 8.5 36.5t30.5 16.5h10q19 0 29.5 -16.5t7.5 -36.5q0 -5 -1 -18t-1 -21 v-821q0 -144 -24 -225.5t-83 -137.5q-60 -56 -160 -86.5t-221 -30.5q-271 0 -385 156q-51 67 -68.5 138t-17.5 208v799q0 29 -2 39zM412 1583q0 34 24 58t56 24q34 0 57.5 -24t23.5 -58q0 -33 -23.5 -56.5t-57.5 -23.5q-32 0 -56 24t-24 56zM748 1583q0 34 22.5 57t56.5 23 t57 -23t23 -57q0 -33 -23.5 -56.5t-56.5 -23.5t-56 23.5t-23 56.5z" />
<glyph unicode="&#xdf;" horiz-adv-x="1112" d="M176 -313q-7 -27 1.5 -51t31.5 -27q65 -7 65 22v1315q0 106 8.5 161t34.5 95q30 49 87.5 83t125.5 34q91 0 149 -57.5t58 -137.5q0 -91 -81.5 -152t-213.5 -61q-18 0 -30 2q-23 2 0 -73h22q14 0 34 1t26 1q209 0 303 -94q48 -47 76 -124t28 -173q0 -186 -82 -295 t-215 -109q-61 0 -109 28.5t-102 96.5q-10 12 -12 -10v-15q0 -49 23 -90t65 -61q69 -27 139 -27q172 0 284 133t112 347q0 170 -95 301q-46 65 -112.5 97t-167.5 36q-3 0 -2.5 3t2.5 3q102 18 155.5 80.5t53.5 154.5q0 114 -87.5 191.5t-226.5 77.5q-89 0 -163 -40.5 t-117 -101.5q-64 -87 -64 -336v-1191q0 -27 -4 -37z" />
<glyph unicode="&#xe0;" d="M102 256q0 -118 93 -200.5t225 -82.5q110 0 196.5 58.5t126.5 161.5q7 7 7 4q0 -76 10 -115q9 -45 45.5 -73t81.5 -21q13 3 10 12q-53 98 -53 246q0 65 4 133v88v98v25q0 139 -7.5 192.5t-33.5 106.5q-34 65 -111 100t-184 35q-154 0 -281 -78q-25 -16 10 -34 q40 -21 83 -14q12 2 20 7q74 45 176 45q114 0 170.5 -66.5t57.5 -205.5q0 -13 -13 -16q-45 -28 -101 -48.5t-159 -44.5q-103 -22 -192 -59q-84 -34 -132.5 -102t-48.5 -152zM203 258q0 92 62.5 142t232.5 94q97 23 217 79l28 13q1 2 4 0.5t3 -4.5v-70q0 -212 -86.5 -338.5 t-231.5 -126.5q-95 0 -162 61.5t-67 149.5zM258 1246l2 -23l404 -90q10 -2 13 11.5t1 27.5l-2 14l-391 123q-16 4 -22 -17.5t-5 -45.5z" />
<glyph unicode="&#xe1;" d="M102 256q0 -118 93 -200.5t225 -82.5q110 0 196.5 58.5t126.5 161.5q7 7 7 4q0 -76 10 -115q9 -45 45.5 -73t81.5 -21q13 3 10 12q-53 98 -53 246q0 65 4 133v88v98v25q0 139 -7.5 192.5t-33.5 106.5q-34 65 -111 100t-184 35q-154 0 -281 -78q-25 -16 10 -34 q40 -21 83 -14q12 2 20 7q74 45 176 45q114 0 170.5 -66.5t57.5 -205.5q0 -13 -13 -16q-45 -28 -101 -48.5t-159 -44.5q-103 -22 -192 -59q-84 -34 -132.5 -102t-48.5 -152zM203 258q0 92 62.5 142t232.5 94q97 23 217 79l28 13q1 2 4 0.5t3 -4.5v-70q0 -212 -86.5 -338.5 t-231.5 -126.5q-95 0 -162 61.5t-67 149.5zM319.5 1168.5q3.5 -11.5 12.5 -23.5l10 -12l399 86q10 3 11.5 13t-3.5 22.5t-11 24.5t-12 20l-5 8l-395 -121q-10 -6 -6.5 -17.5z" />
<glyph unicode="&#xe2;" d="M102 256q0 -118 93 -200.5t225 -82.5q110 0 196.5 58.5t126.5 161.5q7 7 7 4q0 -76 10 -115q9 -45 45.5 -73t81.5 -21q13 3 10 12q-53 98 -53 246q0 65 4 133v88v98v25q0 139 -7.5 192.5t-33.5 106.5q-34 65 -111 100t-184 35q-154 0 -281 -78q-25 -16 10 -34 q40 -21 83 -14q12 2 20 7q74 45 176 45q114 0 170.5 -66.5t57.5 -205.5q0 -13 -13 -16q-45 -28 -101 -48.5t-159 -44.5q-103 -22 -192 -59q-84 -34 -132.5 -102t-48.5 -152zM189 1169.5q-3 -14.5 10 -20.5q15 -9 37 -2l241 82q22 6 45 0l238 -82q33 -10 55 12q5 6 1.5 14 t-11.5 13l-266 129q-33 17 -66 0l-268 -125q-13 -6 -16 -20.5zM203 258q0 92 62.5 142t232.5 94q97 23 217 79l28 13q1 2 4 0.5t3 -4.5v-70q0 -212 -86.5 -338.5t-231.5 -126.5q-95 0 -162 61.5t-67 149.5z" />
<glyph unicode="&#xe3;" d="M102 256q0 -118 93 -200.5t225 -82.5q110 0 196.5 58.5t126.5 161.5q7 7 7 4q0 -76 10 -115q9 -45 45.5 -73t81.5 -21q13 3 10 12q-53 98 -53 246q0 65 4 133v88v98v25q0 139 -7.5 192.5t-33.5 106.5q-34 65 -111 100t-184 35q-154 0 -281 -78q-25 -16 10 -34 q40 -21 83 -14q12 2 20 7q74 45 176 45q114 0 170.5 -66.5t57.5 -205.5q0 -13 -13 -16q-45 -28 -101 -48.5t-159 -44.5q-103 -22 -192 -59q-84 -34 -132.5 -102t-48.5 -152zM203 258q0 92 62.5 142t232.5 94q97 23 217 79l28 13q1 2 4 0.5t3 -4.5v-70q0 -212 -86.5 -338.5 t-231.5 -126.5q-95 0 -162 61.5t-67 149.5zM209 1186q-5 -9 5.5 -17.5t23.5 -12.5l14 -5q34 44 59.5 60t61.5 16q27 0 50.5 -9t86.5 -42q76 -43 127 -43t100 37.5t80 99.5q4 10 -7.5 19t-25.5 13l-14 3q-29 -45 -55 -63.5t-60 -18.5q-55 0 -137 47q-50 27 -75 36t-52 9 q-107 0 -182 -129z" />
<glyph unicode="&#xe4;" d="M102 256q0 84 48.5 152t132.5 102q89 37 192 59q103 24 159 44.5t101 48.5q13 3 13 16q-1 139 -57.5 205.5t-170.5 66.5q-102 0 -176 -45q-31 -18 -85 0q-40 13 -37 29q0 7 9 12q127 78 281 78q107 0 184 -35t111 -100q26 -53 33.5 -106.5t7.5 -192.5v-25v-98v-88 q-4 -68 -4 -133q0 -148 53 -246q3 -9 -10 -12q-45 -7 -81.5 21t-45.5 73q-10 39 -10 115q0 3 -7 -4q-40 -103 -126.5 -161.5t-196.5 -58.5q-132 0 -225 82.5t-93 200.5zM203 258q0 -88 67 -149.5t162 -61.5q145 0 231.5 126.5t86.5 338.5v70q0 3 -3 4.5t-4 -0.5l-28 -13 q-120 -56 -217 -79q-170 -44 -232.5 -94t-62.5 -142zM268 1225q0 32 23 55t55 23t55 -23t23 -55q0 -34 -23 -57t-55 -23t-55 23t-23 57zM582 1223q0 32 22.5 54.5t54.5 22.5t55 -22.5t23 -54.5t-23 -55t-55 -23t-54.5 23t-22.5 55z" />
<glyph unicode="&#xe5;" d="M102 256q0 84 48.5 152t132.5 102q89 37 192 59q103 24 159 44.5t101 48.5q13 3 13 16q-1 139 -57.5 205.5t-170.5 66.5q-102 0 -176 -45q-31 -18 -85 0q-40 13 -37 29q0 7 9 12q127 78 281 78q107 0 184 -35t111 -100q26 -53 33.5 -106.5t7.5 -192.5v-25v-98v-88 q-4 -68 -4 -133q0 -148 53 -246q3 -9 -10 -12q-45 -7 -81.5 21t-45.5 73q-10 39 -10 115q0 3 -7 -4q-40 -103 -126.5 -161.5t-196.5 -58.5q-132 0 -225 82.5t-93 200.5zM203 258q0 -88 67 -149.5t162 -61.5q145 0 231.5 126.5t86.5 338.5v70q0 3 -3 4.5t-4 -0.5l-28 -13 q-120 -56 -217 -79q-170 -44 -232.5 -94t-62.5 -142zM324 1313q0 74 52.5 126t127.5 52q74 0 126 -52.5t52 -125.5q0 -75 -52 -127.5t-126 -52.5q-75 0 -127.5 52.5t-52.5 127.5zM387 1313q0 -49 33.5 -83t83.5 -34q48 0 82.5 34t34.5 83q0 47 -34.5 80.5t-82.5 33.5 q-49 0 -83 -33.5t-34 -80.5z" />
<glyph unicode="&#xe6;" horiz-adv-x="1662" d="M102 256q0 83 49 151.5t134 102.5q82 36 190 59q179 42 262 93q13 9 13 16q-1 139 -57.5 205.5t-172.5 66.5q-100 0 -174 -45q-31 -18 -85 0q-40 13 -39 29q1 7 9 12q127 78 283 78q107 0 183 -35t110 -100q21 -40 29 -82q57 102 146.5 159.5t197.5 57.5q172 0 274 -124 t102 -333v-30q-4 -17 -14 -17l-663 -69q-7 0 -7 -13q4 -38 7 -62t9.5 -47t8.5 -29.5t13.5 -35t15.5 -37.5q41 -85 114.5 -132.5t161.5 -47.5q92 0 169 48t130 138q5 7 13 3t8 -13v-51q0 -49 -29 -82q-56 -55 -135.5 -86t-167.5 -31q-153 0 -254.5 88.5t-124.5 241.5 q-20 -141 -131 -235.5t-258 -94.5q-134 0 -227 82.5t-93 200.5zM203 258q0 -88 67 -149.5t164 -61.5q143 0 229.5 126.5t86.5 338.5v70q0 8 -7 4l-26 -13q-118 -55 -219 -79q-170 -44 -232.5 -94t-62.5 -142zM874 528q-4 -12 5 -12l567 70q8 0 8 10v27q0 140 -79 233.5 t-199 93.5q-93 3 -162 -55t-103 -153t-37 -214z" />
<glyph unicode="&#xe7;" horiz-adv-x="894" d="M104 492q0 230 123 382t308 152q41 0 70.5 -7.5t78.5 -27.5q4 -2 8.5 -3.5t5.5 -2.5q78 -34 78 -80v-26q0 -21 -20 -28.5t-33 7.5q-77 92 -201 92q-135 0 -225 -130t-90 -328q0 -194 93 -319.5t237 -125.5q73 0 137.5 37t101.5 100q4 7 11.5 2.5t7.5 -12.5v-47 q0 -55 -41 -82q-84 -60 -199 -70q-10 -1 -19 -10t-12 -20q-8 -27 2 -27q5 1 13 3.5t14 2.5q69 0 112.5 -35.5t43.5 -93.5q0 -69 -55.5 -108t-155.5 -39q-24 0 -55 35q-23 26 -10 28q2 1 5 0q24 -6 45 -6q60 0 101 26t41 64q0 36 -31.5 57t-83.5 21q-28 0 -51 -6l-10 -4 q-27 -9 10 86l2 6q4 22 -12 29q-152 33 -248.5 172.5t-96.5 335.5z" />
<glyph unicode="&#xe8;" d="M104 504q0 -235 119 -383t307 -148q89 0 169.5 31t134.5 86q28 24 28 80v51q0 12 -10 14q-6 2 -8 -4q-52 -89 -130 -136.5t-169 -47.5q-89 0 -162.5 47t-116.5 131q-5 13 -15 38t-12.5 34t-8 30.5t-8.5 46t-7 62.5q-4 13 4 13l666 71q4 0 8 5t4 10v32q0 209 -102.5 333 t-274.5 124q-180 0 -298 -148t-118 -372zM215 526q3 119 37.5 214.5t103 153.5t160.5 56q120 0 200.5 -93.5t80.5 -233.5v-27q0 -10 -11 -10l-565 -72q-6 0 -6 12zM258 1246l2 -23l404 -90q10 -2 13 11.5t1 27.5l-2 14l-391 123q-16 4 -22 -17.5t-5 -45.5z" />
<glyph unicode="&#xe9;" d="M104 504q0 -235 119 -383t307 -148q89 0 169.5 31t134.5 86q28 24 28 80v51q0 12 -10 14q-6 2 -8 -4q-52 -89 -130 -136.5t-169 -47.5q-89 0 -162.5 47t-116.5 131q-5 13 -15 38t-12.5 34t-8 30.5t-8.5 46t-7 62.5q-4 13 4 13l666 71q4 0 8 5t4 10v32q0 209 -102.5 333 t-274.5 124q-180 0 -298 -148t-118 -372zM215 526q3 119 37.5 214.5t103 153.5t160.5 56q120 0 200.5 -93.5t80.5 -233.5v-27q0 -10 -11 -10l-565 -72q-6 0 -6 12zM319.5 1168.5q3.5 -11.5 12.5 -23.5l10 -12l399 86q10 3 11.5 13t-3.5 22.5t-11 24.5t-12 20l-5 8l-395 -121 q-10 -6 -6.5 -17.5z" />
<glyph unicode="&#xea;" d="M104 504q0 -235 119 -383t307 -148q89 0 169.5 31t134.5 86q28 24 28 80v51q0 12 -10 14q-6 2 -8 -4q-52 -89 -130 -136.5t-169 -47.5q-89 0 -162.5 47t-116.5 131q-5 13 -15 38t-12.5 34t-8 30.5t-8.5 46t-7 62.5q-4 13 4 13l666 71q4 0 8 5t4 10v32q0 209 -102.5 333 t-274.5 124q-180 0 -298 -148t-118 -372zM189 1169.5q-3 -14.5 10 -20.5q15 -9 37 -2l241 82q22 6 45 0l238 -82q33 -10 55 12q5 6 1.5 14t-11.5 13l-266 129q-33 17 -66 0l-268 -125q-13 -6 -16 -20.5zM215 526q3 119 37.5 214.5t103 153.5t160.5 56q120 0 200.5 -93.5 t80.5 -233.5v-27q0 -10 -11 -10l-565 -72q-6 0 -6 12z" />
<glyph unicode="&#xeb;" d="M104 504q0 224 118 372t298 148q172 0 274.5 -124t102.5 -333v-32q0 -5 -4 -10t-8 -5l-666 -71q-8 0 -4 -13q4 -38 7 -62.5t8.5 -46t8 -30.5t12.5 -34t15 -38q43 -84 116.5 -131t162.5 -47q91 0 169 47.5t130 136.5q4 10 13 1q5 -5 5 -11v-51q0 -56 -28 -80 q-54 -55 -134.5 -86t-169.5 -31q-188 0 -307 148t-119 383zM215 526q0 -12 6 -12l565 72q11 0 11 10v27q0 140 -80.5 233.5t-200.5 93.5q-92 2 -160.5 -56t-103 -153.5t-37.5 -214.5zM268 1225q0 32 23 55t55 23t55 -23t23 -55q0 -34 -23 -57t-55 -23t-55 23t-23 57z M582 1223q0 32 22.5 54.5t54.5 22.5t55 -22.5t23 -54.5t-23 -55t-55 -23t-54.5 23t-22.5 55z" />
<glyph unicode="&#xec;" horiz-adv-x="450" d="M25 1265q0 -14 1 -24l1 -10l360 -98q10 -2 13 11.5t1 27.5l-2 14l-350 135q-10 2 -16 -6.5t-7 -22t-1 -27.5zM174 942q4 -20 4 -35v-817q0 -14 -2 -20q-5 -70 33 -70h33q39 0 30 70v20v905q0 30 -65 23q-23 -3 -31.5 -26t-1.5 -50z" />
<glyph unicode="&#xed;" horiz-adv-x="450" d="M2 1168.5q4 -11.5 14 -23.5l9 -12l401 98q15 8 9.5 28t-19.5 41l-15 21l-393 -135q-10 -6 -6 -17.5zM174 942q4 -20 4 -35v-817q0 -14 -2 -20q-5 -70 33 -70h33q39 0 30 70v20v905q0 30 -65 23q-23 -3 -31.5 -26t-1.5 -50z" />
<glyph unicode="&#xee;" horiz-adv-x="450" d="M-5.5 1171.5q-3.5 -14.5 9.5 -20.5q17 -9 37 -2l160 82q23 6 47 0l155 -82q31 -11 54 12q5 7 1 14.5t-12 12.5l-184 129q-32 16 -65 0l-185 -125q-14 -6 -17.5 -20.5zM174 942q4 -20 4 -35v-817q0 -14 -2 -20q-5 -70 33 -70h33q39 0 30 70v20v905q0 30 -65 23 q-23 -3 -31.5 -26t-1.5 -50z" />
<glyph unicode="&#xef;" horiz-adv-x="450" d="M43 1245q0 32 23 55t55 23t55 -23t23 -55q0 -34 -23 -57t-55 -23t-55 23t-23 57zM174 942q-7 27 1.5 50t31.5 26q65 7 65 -23v-905v-20q9 -70 -30 -70h-33q-38 0 -33 70q2 6 2 20v817q0 15 -4 35zM254 1243q0 32 23 55t55 23q31 0 53.5 -23t22.5 -55t-22.5 -55t-53.5 -23 q-32 0 -55 23t-23 55z" />
<glyph unicode="&#xf1;" horiz-adv-x="1042" d="M177 985q-5 -30 1 -59v-19v-817v-18q-9 -72 31 -72h33q36 0 32 72q0 3 -1 9t-1 9v528q41 149 135 240.5t203 91.5q92 0 132 -55t40 -180v-520q0 -56 11 -113q9 -46 46.5 -74t82.5 -22q13 3 8 14q-53 98 -53 246v469q0 81 -11 128t-39 85q-34 43 -92 69.5t-119 26.5 q-113 0 -209 -78t-131 -198q-1 -3 -4 -3v252q0 32 -65 21q-25 -3 -30 -33zM217 1186q-5 -9 5.5 -17.5t23.5 -12.5l14 -5q34 44 59.5 60t61.5 16q27 0 50.5 -9t86.5 -42q76 -43 127 -43t100 37.5t80 99.5q4 10 -7.5 19t-25.5 13l-14 3q-29 -46 -54.5 -64t-59.5 -18 q-56 0 -138 47q-50 27 -75 36t-52 9q-107 0 -182 -129z" />
<glyph unicode="&#xf2;" horiz-adv-x="1075" d="M104 504q0 -225 125 -378t308 -153q184 0 308 152t124 377q0 223 -124 372.5t-308 149.5q-183 0 -308 -149.5t-125 -370.5zM207 500q0 188 96 319t234 131t234.5 -130.5t96.5 -317.5q0 -189 -96.5 -322t-234.5 -133q-135 0 -232.5 133t-97.5 320zM258 1246l2 -23l404 -90 q10 -2 13 11.5t1 27.5l-2 14l-391 123q-16 4 -22 -17.5t-5 -45.5z" />
<glyph unicode="&#xf3;" horiz-adv-x="1075" d="M104 504q0 -225 125 -378t308 -153q184 0 308 152t124 377q0 223 -124 372.5t-308 149.5q-183 0 -308 -149.5t-125 -370.5zM207 500q0 188 96 319t234 131t234.5 -130.5t96.5 -317.5q0 -189 -96.5 -322t-234.5 -133q-135 0 -232.5 133t-97.5 320zM354 1168.5 q4 -11.5 14 -23.5l9 -12l399 86q10 3 11.5 13t-3.5 22.5t-11 24.5t-11 20l-6 8l-396 -121q-10 -6 -6 -17.5z" />
<glyph unicode="&#xf4;" horiz-adv-x="1075" d="M104 504q0 -225 125 -378t308 -153q184 0 308 152t124 377q0 223 -124 372.5t-308 149.5q-183 0 -308 -149.5t-125 -370.5zM207 500q0 188 96 319t234 131t234.5 -130.5t96.5 -317.5q0 -189 -96.5 -322t-234.5 -133q-135 0 -232.5 133t-97.5 320zM223.5 1169.5 q-3.5 -14.5 9.5 -20.5q15 -9 37 -2l242 82q22 6 45 0l238 -82q33 -10 55 12q5 6 1.5 14t-11.5 13l-267 129q-33 16 -65 0l-268 -125q-13 -6 -16.5 -20.5z" />
<glyph unicode="&#xf5;" horiz-adv-x="1075" d="M104 504q0 221 125 370.5t308 149.5q184 0 308 -149.5t124 -372.5q0 -225 -124 -377t-308 -152q-183 0 -308 153t-125 378zM207 500q0 -187 97.5 -320t232.5 -133q138 0 234.5 133t96.5 322q0 187 -96.5 317.5t-234.5 130.5t-234 -131t-96 -319zM233 1186 q-5 -9 5.5 -17.5t23.5 -12.5l14 -5q34 44 59.5 60t61.5 16q27 0 51 -9t87 -42q76 -43 127 -43t100 37.5t80 99.5q4 9 -7.5 17.5t-25.5 12.5l-14 5q-29 -45 -55 -63.5t-60 -18.5q-55 0 -137 47q-50 27 -75 36t-52 9q-108 0 -183 -129z" />
<glyph unicode="&#xf6;" horiz-adv-x="1075" d="M104 504q0 221 125 370.5t308 149.5q184 0 308 -149.5t124 -372.5q0 -225 -124 -377t-308 -152q-183 0 -308 153t-125 378zM207 500q0 -187 97.5 -320t232.5 -133q138 0 234.5 133t96.5 322q0 187 -96.5 317.5t-234.5 130.5t-234 -131t-96 -319zM303 1225q0 32 23 55 t55 23t55 -23t23 -55q0 -34 -23 -57t-55 -23t-55 23t-23 57zM616 1223q0 32 23 54.5t55 22.5t55 -22.5t23 -54.5t-23 -55t-55 -23t-55 23t-23 55z" />
<glyph unicode="&#xf7;" horiz-adv-x="888" d="M99.5 541.5q2.5 -11.5 11.5 -11.5h667q2 5 4 13.5t6 26t1.5 29t-11.5 11.5h-667q-2 -5 -4 -13.5t-6 -26t-1.5 -29zM367 268q0 -31 22.5 -53t54.5 -22q31 0 52.5 22t21.5 53q0 32 -21.5 54t-52.5 22q-32 0 -54.5 -22t-22.5 -54zM367 872q0 -31 22.5 -53t54.5 -22 q31 0 52.5 22t21.5 53t-21.5 53.5t-52.5 22.5q-32 0 -54.5 -22.5t-22.5 -53.5z" />
<glyph unicode="&#xf8;" horiz-adv-x="1075" d="M106 502q0 -257 166 -426q12 -8 9 -17l-60 -118q-4 -6 7 -12t24 -9l12 -2l58 111q2 7 16 -2q99 -54 201 -54q119 0 218 70t155.5 191t56.5 266q0 171 -72 297q-23 44 -41 68.5t-53 56.5q-11 7 -8 16l57 111q4 6 -6.5 12t-22.5 9l-12 3l-57 -104q-3 -9 -17 0 q-91 55 -198 55q-121 0 -220.5 -68t-156 -188t-56.5 -266zM207 498q0 191 97 321.5t239 130.5q88 0 159 -55q12 -8 9 -14l-381 -723q-2 -3 -5.5 -2t-5.5 4q-112 144 -112 338zM371 119l377 723q2 3 5 2t5 -4q110 -143 110 -342q0 -120 -44.5 -224.5t-120.5 -166.5t-164 -62 q-82 0 -162 57q-12 8 -6 17z" />
<glyph unicode="&#xf9;" horiz-adv-x="1040" d="M162 942q2 -10 2 -37v-608q0 -134 45 -209q31 -54 90 -84.5t133 -30.5q118 0 205.5 72t126.5 197q0 5 4 6v-29q3 -92 9.5 -131.5t27.5 -87.5q3 -5 8 -8q34 -20 51.5 16.5t9.5 81.5q-12 68 -12 303v604q0 31 -63 23q-24 -3 -32 -26t-3 -52q4 -10 4 -37v-334 q0 -237 -89 -380.5t-237 -143.5q-103 0 -143.5 62.5t-40.5 222.5v665q0 30 -65 23q-23 -3 -30.5 -26.5t-0.5 -51.5zM274 1248l2 -23l404 -90q10 -2 13 11.5t1 27.5l-2 14l-391 123q-16 4 -22 -17.5t-5 -45.5z" />
<glyph unicode="&#xfa;" horiz-adv-x="1040" d="M162 942q2 -10 2 -37v-608q0 -134 45 -209q31 -54 90 -84.5t133 -30.5q118 0 205.5 72t126.5 197q0 5 4 6v-29q3 -92 9.5 -131.5t27.5 -87.5q3 -5 8 -8q34 -20 51.5 16.5t9.5 81.5q-12 68 -12 303v604q0 31 -63 23q-24 -3 -32 -26t-3 -52q4 -10 4 -37v-334 q0 -237 -89 -380.5t-237 -143.5q-103 0 -143.5 62.5t-40.5 222.5v665q0 30 -65 23q-23 -3 -30.5 -26.5t-0.5 -51.5zM337.5 1168.5q3.5 -11.5 12.5 -23.5l10 -12l400 86q10 3 11.5 13t-3.5 22.5t-11.5 24.5t-12.5 20l-5 8l-395 -121q-10 -6 -6.5 -17.5z" />
<glyph unicode="&#xfb;" horiz-adv-x="1040" d="M162 942q2 -10 2 -37v-608q0 -134 45 -209q31 -54 90 -84.5t133 -30.5q118 0 205.5 72t126.5 197q0 5 4 6v-29q3 -92 9.5 -131.5t27.5 -87.5q3 -5 8 -8q34 -20 51.5 16.5t9.5 81.5q-12 68 -12 303v604q0 31 -63 23q-24 -3 -32 -26t-3 -52q4 -10 4 -37v-334 q0 -237 -89 -380.5t-237 -143.5q-103 0 -143.5 62.5t-40.5 222.5v665q0 30 -65 23q-23 -3 -30.5 -26.5t-0.5 -51.5zM207 1169.5q-3 -14.5 10 -20.5q15 -9 37 -2l242 82q23 6 45 0l237 -82q34 -10 56 12q5 7 1 14.5t-12 12.5l-266 129q-33 16 -65 0l-269 -125 q-13 -6 -16 -20.5z" />
<glyph unicode="&#xfc;" horiz-adv-x="1040" d="M162 942q-7 28 0.5 51.5t30.5 26.5q65 7 65 -23v-665q0 -160 40.5 -222.5t143.5 -62.5q148 0 237 143.5t89 380.5v334q0 27 -4 37q-5 29 3 52t32 26q63 8 63 -23v-604q0 -235 12 -303q8 -45 -9.5 -81.5t-51.5 -16.5q-5 3 -8 8q-21 48 -27.5 87.5t-9.5 131.5v29l-4 -5v-1 q-39 -125 -126.5 -197t-205.5 -72q-74 0 -133 30.5t-90 84.5q-45 75 -45 209v608q0 27 -2 37zM287 1225q0 32 23 55t55 23t54.5 -23t22.5 -55q0 -34 -22.5 -57t-54.5 -23t-55 23t-23 57zM600 1223q0 32 23 54.5t55 22.5t54 -22.5t22 -54.5t-22 -55t-54 -23t-55 23t-23 55z " />
<glyph unicode="&#xff;" d="M112 962q-1 14 5.5 24.5t21.5 10.5h39q9 0 16 -4t11.5 -8t9 -14.5t6.5 -16t5.5 -19t4.5 -17.5t5 -15t6 -18l276 -735q3 -9 12.5 -9t12.5 9l264 735q6 18 6 39q4 73 47 73h8q22 0 31 -20.5t2 -44.5l-18 -47l-353 -996q-51 -149 -109 -210.5t-147 -61.5q-38 0 -73 12 q-31 12 -48.5 43t-17.5 68q0 10 14.5 13.5t20.5 -5.5q45 -57 109 -57q56 0 93 41t77 147l16 49q19 45 0 90l-328 867q-10 33 -18 49q-6 14 -7 28zM268 1225q0 32 23 55t55 23t55 -23t23 -55q0 -34 -23 -57t-55 -23t-55 23t-23 57zM582 1223q0 32 22.5 54.5t54.5 22.5 t55 -22.5t23 -54.5t-23 -55t-55 -23t-54.5 23t-22.5 55z" />
<glyph unicode="&#x152;" horiz-adv-x="1933" d="M102 678q0 197 85.5 361.5t234 259t326.5 94.5q159 0 305 -84q2 21 14 36t31 15h708q31 0 23 -64q-5 -40 -84 -22q-20 4 -37 4h-518q-10 0 -17.5 -7t-7.5 -18v-483q0 -10 7.5 -17.5t17.5 -7.5h487h17q25 3 45 -4.5t20 -27.5v-15q0 -23 -22 -30.5t-51 -3.5h-19h-477 q-10 0 -17.5 -7t-7.5 -18v-541q0 -10 7 -17t18 -7h526q45 0 64 8q25 11 52 6t30 -29q7 -65 -23 -65h-741q-22 0 -34.5 19t-12.5 44q-143 -84 -306 -84q-176 0 -324 93.5t-233.5 256t-85.5 355.5zM223 682q0 -171 69.5 -314.5t189.5 -226t263 -82.5q161 0 289 103 q17 11 17 37v966q0 26 -17 37q-128 103 -289 103q-143 0 -263 -82.5t-189.5 -226t-69.5 -314.5z" />
<glyph unicode="&#x153;" horiz-adv-x="1761" d="M102 504q0 221 125 370.5t308 149.5q141 0 246 -81.5t134 -213.5q30 136 131 215.5t238 79.5q172 0 274.5 -125t102.5 -332v-32q-4 -15 -14 -15l-664 -71q-6 0 -6 -13q4 -32 7.5 -56t5.5 -38t7.5 -31.5t7.5 -23.5t11.5 -29t13.5 -33q41 -84 115 -131t162 -47 q92 0 169.5 47.5t129.5 136.5q4 7 12 3t8 -13v-51q0 -49 -29 -82q-56 -54 -135 -84.5t-168 -30.5q-94 0 -177.5 42.5t-135.5 117.5q-26 36 -38.5 66.5t-27.5 91.5q-25 -139 -132.5 -228.5t-247.5 -89.5q-183 0 -308 153t-125 378zM205 500q0 -124 44.5 -228.5t120.5 -164.5 t165 -60q138 0 234.5 132t96.5 321t-96.5 319.5t-234.5 130.5t-234 -131t-96 -319zM979 526q0 -12 4 -12l567 72q9 0 9 10v27q0 140 -79.5 233.5t-199.5 93.5q-93 2 -161.5 -56.5t-102.5 -153.5t-37 -214z" />
<glyph unicode="&#x178;" d="M24 1349q4 17 19 17h86q7 0 12.5 -3t10 -10t7 -12.5t6 -16.5t5.5 -15q3 -12 12 -27l332 -686q3 -6 10.5 -6t10.5 6l323 670q8 16 8 22q1 4 5.5 20t7 22.5t7.5 17t12.5 14.5t16.5 4h46q17 0 22 -17t-6 -32q-7 -10 -37 -68l-369 -743q-10 -23 -10 -45v-369q0 -29 2 -39 q3 -21 -7 -37t-30 -16h-45q-20 0 -30 16t-7 37q2 10 2 39v369q0 22 -10 45l-389 788q-14 22 -16 25q-11 13 -7 30zM256 1583q0 34 23 58t57 24q32 0 56 -24t24 -58q0 -32 -24 -56t-56 -24q-33 0 -56.5 23.5t-23.5 56.5zM592 1583q0 34 23 57t57 23q33 0 56.5 -23.5 t23.5 -56.5q0 -34 -24 -57t-58 -23q-32 0 -55.5 24t-22.5 56z" />
<glyph unicode="&#x2c6;" horiz-adv-x="1024" d="M199 1169.5q-3 -14.5 10 -20.5q15 -9 37 -2l241 82q22 6 45 0l238 -82q33 -10 55 12q5 6 1.5 14t-11.5 13l-266 129q-33 17 -66 0l-268 -125q-13 -6 -16 -20.5z" />
<glyph unicode="&#x2dc;" horiz-adv-x="1024" d="M209 1186q-5 -9 5.5 -17.5t23.5 -12.5l14 -5q34 44 59.5 60t61.5 16q27 0 50.5 -9t86.5 -42q76 -43 127 -43t100 37.5t80 99.5q4 10 -7.5 19t-25.5 13l-14 3q-29 -45 -55 -63.5t-60 -18.5q-55 0 -137 47q-50 27 -75 36t-52 9q-107 0 -182 -129z" />
<glyph unicode="&#x2000;" horiz-adv-x="849" />
<glyph unicode="&#x2001;" horiz-adv-x="1698" />
<glyph unicode="&#x2002;" horiz-adv-x="849" />
<glyph unicode="&#x2003;" horiz-adv-x="1698" />
<glyph unicode="&#x2004;" horiz-adv-x="566" />
<glyph unicode="&#x2005;" horiz-adv-x="424" />
<glyph unicode="&#x2006;" horiz-adv-x="283" />
<glyph unicode="&#x2007;" horiz-adv-x="283" />
<glyph unicode="&#x2008;" horiz-adv-x="212" />
<glyph unicode="&#x2009;" horiz-adv-x="339" />
<glyph unicode="&#x200a;" horiz-adv-x="94" />
<glyph unicode="&#x2010;" horiz-adv-x="612" d="M99.5 541.5q2.5 -11.5 11.5 -11.5h424q2 5 4 13.5t6 26t1.5 29t-11.5 11.5h-424q-2 -5 -4 -13.5t-6 -26t-1.5 -29z" />
<glyph unicode="&#x2011;" horiz-adv-x="612" d="M99.5 541.5q2.5 -11.5 11.5 -11.5h424q2 5 4 13.5t6 26t1.5 29t-11.5 11.5h-424q-2 -5 -4 -13.5t-6 -26t-1.5 -29z" />
<glyph unicode="&#x2012;" horiz-adv-x="612" d="M99.5 541.5q2.5 -11.5 11.5 -11.5h424q2 5 4 13.5t6 26t1.5 29t-11.5 11.5h-424q-2 -5 -4 -13.5t-6 -26t-1.5 -29z" />
<glyph unicode="&#x2013;" horiz-adv-x="1177" d="M99.5 621.5q2.5 -11.5 11.5 -11.5h956q2 5 4 13.5t6 26t1.5 29t-11.5 11.5h-956q-2 -5 -4 -13.5t-6 -26t-1.5 -29z" />
<glyph unicode="&#x2014;" horiz-adv-x="1251" d="M-11.5 543.5q2.5 -11.5 11.5 -11.5h1251q2 5 4 13.5t6 26t1.5 29t-11.5 11.5h-1251q-2 -5 -4 -13.5t-6 -26t-1.5 -29z" />
<glyph unicode="&#x2018;" horiz-adv-x="450" d="M131 1128q0 -46 23.5 -75t60.5 -29q32 0 54 23.5t22 58.5q0 55 -45 72q-9 3 -14.5 5t-10 6.5t-2.5 10.5q15 48 39 86q16 30 13 77q-3 27 -13 26q-4 -1 -8 -5q-119 -129 -119 -256z" />
<glyph unicode="&#x2019;" horiz-adv-x="450" d="M156 1083q-13 -16 15 -18q38 -2 66 18l9 9q71 104 71 196q0 46 -23.5 75.5t-60.5 29.5q-32 0 -53.5 -23.5t-21.5 -58.5q0 -25 12.5 -44t34.5 -26q28 -12 22 -33q-14 -41 -27.5 -65t-43.5 -60z" />
<glyph unicode="&#x201a;" horiz-adv-x="450" d="M156 53q0 -60 61 -73q15 -2 10 -27q-15 -41 -28.5 -64.5t-42.5 -62.5q-13 -16 14 -18q36 -3 64 16q6 5 10 10q73 103 73 197q0 45 -23.5 74.5t-60.5 29.5q-32 0 -54.5 -23.5t-22.5 -58.5z" />
<glyph unicode="&#x201c;" horiz-adv-x="761" d="M166 1128q0 -45 23.5 -74.5t60.5 -29.5q32 0 55 24t23 58q0 29 -16.5 49.5t-45.5 26.5q-16 3 -12 18q16 51 39 86q17 26 14 74q-2 29 -13 27l-7 -5q-57 -59 -89 -126t-32 -128zM412 1128q0 -45 23.5 -74.5t60.5 -29.5q32 0 54.5 24t22.5 58q0 63 -61 76q-7 0 -11 6t-1 12 q16 51 39 86q17 26 13 74q-2 29 -13 27q-3 -1 -7 -5q-57 -58 -88.5 -125t-31.5 -129z" />
<glyph unicode="&#x201d;" horiz-adv-x="763" d="M190 1083q-13 -16 15 -18q37 -3 65 16q6 4 9 9q71 104 71 200q0 44 -23.5 73.5t-60.5 29.5q-32 0 -54 -23.5t-22 -58.5q0 -54 46 -70q30 -13 24 -33q-14 -41 -27 -64t-43 -61zM436 1083q-13 -17 15 -18q38 -3 64 16l9 9q72 106 72 200q0 44 -23.5 73.5t-60.5 29.5 q-32 0 -54 -23.5t-22 -58.5q0 -54 45 -70q31 -13 25 -33q-14 -41 -27 -64t-43 -61z" />
<glyph unicode="&#x201e;" horiz-adv-x="763" d="M190 53q0 -60 62 -73q15 -2 10 -27q-15 -40 -28.5 -64t-43.5 -63q-13 -16 15 -18q37 -2 65 17q6 4 9 9q73 103 73 197q0 45 -23.5 74.5t-60.5 29.5q-33 0 -55.5 -23.5t-22.5 -58.5zM436 53q0 -60 62 -73q15 -2 10 -27q-15 -40 -28.5 -64t-43.5 -63q-13 -16 14 -18 q36 -3 64 16q6 5 10 10q74 104 74 197q0 45 -23.5 74.5t-60.5 29.5q-33 0 -55.5 -23.5t-22.5 -58.5z" />
<glyph unicode="&#x2022;" horiz-adv-x="1366" d="M401 696q0 119 83 203t200 84q116 0 198.5 -84.5t82.5 -202.5t-82.5 -202t-198.5 -84q-117 0 -200 84t-83 202z" />
<glyph unicode="&#x2026;" horiz-adv-x="1384" d="M180 55q0 -34 23 -58t57 -24t57 24t23 58q0 32 -23 55t-57 23t-57 -23t-23 -55zM635 47q0 -31 20.5 -52.5t51.5 -21.5q30 0 50.5 21.5t20.5 52.5q0 29 -20.5 50.5t-50.5 21.5t-51 -22t-21 -50zM1075 39q0 -28 18 -47t46 -19t46.5 19t18.5 47q0 26 -18.5 44.5t-46.5 18.5 q-27 0 -45.5 -18t-18.5 -45z" />
<glyph unicode="&#x202f;" horiz-adv-x="339" />
<glyph unicode="&#x2039;" horiz-adv-x="661" d="M193 410l200 -404q8 -2 20.5 -5t38.5 -7.5t41 -1.5t9 14l-226 469q-10 23 0 43l236 471q11 21 -50 13l-69 -13l-200 -405q-43 -85 0 -174z" />
<glyph unicode="&#x203a;" horiz-adv-x="661" d="M150 6q-11 -22 51 -13l67 13l201 406q43 85 0 174l-201 403q-8 2 -20.5 5t-38.5 7.5t-40.5 1.5t-8.5 -14l225 -469q10 -23 0 -43z" />
<glyph unicode="&#x205f;" horiz-adv-x="424" />
<glyph unicode="&#x20ac;" horiz-adv-x="1204" d="M203 822q3 21 43 40q14 6 28 10q-4 28 -4 39q0 215 115 350.5t295 135.5q77 0 151 -35q74 -32 74 -80v-37q0 -12 -12.5 -12.5t-20.5 8.5q-69 72 -188 72q-103 0 -180.5 -70t-108.5 -188h365q42 0 39 -21q-3 -22 -44 -42q-34 -17 -71 -17h-303q-4 -40 -4 -68q0 -18 2 -26 h254q40 0 39 -20q-1 -21 -42 -42q-34 -18 -71 -18h-172q25 -128 102 -206.5t183 -78.5q65 0 137 32.5t113 84.5q4 4 12 0t8 -10q0 -92 -111 -150q-80 -39 -161 -39q-148 0 -253.5 101.5t-135.5 265.5h-39q-42 0 -39 21z" />
<glyph unicode="&#x2122;" horiz-adv-x="1318" d="M0 1315q0 22 14.5 37.5t36.5 15.5h443q22 0 36.5 -15.5t14.5 -37.5q0 -7 -6.5 -12t-14.5 -5q6 0 -1 1q-40 8 -212 8v-660v-9.5v-11t-0.5 -10.5t-2.5 -11t-5 -8.5t-8 -6.5t-12 -2h-23q-29 0 -29 37v682h-168q-18 0 -29.5 -5.5t-15.5 -5.5q-7 0 -12.5 6.5t-5.5 12.5z M485 614q0 4 4.5 19t4.5 24l102 660q7 28 24.5 47.5t43.5 19.5q17 0 24 -14q180 -486 186 -506l181 506q4 12 26 12q24 0 42 -18.5t24 -46.5v-2l86 -658q10 -35 10 -39q0 -30 -26 -30h-25q-28 0 -33 43q-8 18 -44.5 319.5t-37.5 306.5l-176 -491q-6 -17 -19.5 -36t-25.5 -19 q-11 0 -16 14q-189 514 -197 537l-94 -613q0 -61 -35 -61h-4q-10 0 -17.5 6.5t-7.5 19.5z" />
<glyph unicode="&#xe000;" horiz-adv-x="993" d="M0 0v993h993v-993h-993z" />
<glyph unicode="&#xfb01;" horiz-adv-x="1040" d="M96 932h99q8 0 8 -8v-834q0 -25 -2 -35q-5 -20 4.5 -37.5t30.5 -17.5h30q38 0 33 72q-2 6 -2 18v834q0 8 8 8h438q9 1 16 -6.5t7 -16.5v-819v-18q-4 -28 3.5 -50t29.5 -22h30q38 0 33 72q-2 6 -2 18v887q0 31 -65 20h-490q-8 0 -8 9v90q0 111 70.5 185.5t154.5 74.5 q92 7 163.5 -14t102.5 -44q15 -10 32.5 -12t30.5 6.5t13 26.5q0 27 -18 39q-26 24 -125.5 52t-202.5 20q-126 0 -220.5 -94t-94.5 -240v-90q0 -9 -8 -9h-99q-20 -65 0 -65z" />
<glyph unicode="&#xfb02;" horiz-adv-x="1040" d="M88 964l8 33h97q10 0 10 9v90q0 146 93.5 240t219.5 94q103 7 200.5 -20.5t129.5 -51.5q12 -10 15 -24t0 -35t-3 -25v-993q0 -140 20 -185t83 -45q13 0 28 6q25 7 46.5 -1t21.5 -31v-17q-43 -28 -109 -28q-100 0 -142 69t-42 232v1030q-98 52 -244 45q-83 0 -153 -74.5 t-70 -185.5v-90q0 -9 8 -9h252q15 0 7 -33l-7 -32h-252q-8 0 -8 -8v-834v-18q4 -28 -3.5 -50t-29.5 -22h-31q-20 0 -29.5 17t-4.5 38q4 20 4 35v834q0 8 -10 8h-97q-17 0 -8 32z" />
</font>
</defs>
</svg>
